<svg xmlns="http://www.w3.org/2000/svg" data-name="Layer 1" viewBox="0 0 100 100" x="0px" y="0px" style="color:#FF7F00">
			<title style="" fill="currentColor">Artboard 5</title>
			<path d="M87.5,81.8c0.3,0,0.7,0,1,0l-8.2-0.1C80.3,81.7,85.1,81.8,87.5,81.8z" style="" fill="currentColor"></path><path d="M92.9,82.3c0.8-2.4-2.3-4.6-3.3-6.3c-0.8-1.5-0.7-3.2-1.8-4.7c-0.9-1.2-2.3-1.3-3.3-2.2c-1.4-1.3-1.4-3.7-2.4-5.1    c-1-1.5-3.2-1.1-4.1-2.4c-1.1-1.7-1-4.4-2.7-5.8c-2.3-1.9-4.9-1.4-7.2-3.9c-1.6-1.8-4.1-2.3-5.7-3.9c-1-1-1.1-2.8-2-3.9    c-0.7-0.9-1.8-1.4-2.5-2.2c-0.4-0.5-1.2-1.4-1.2-1.4c0.2-0.4,0.3-0.9,0.2-1.3c-0.1-0.6-0.5-1-1.1-0.8c0-0.1,0-0.2,0-0.4    c0.1-1-0.2-1.4-0.6-1.4c0,0,0,0,0,0l0,0c-1.5,0-5.1,3.7-5.8,4.2c-1.4,0.9-3.3,0.1-4.5,1.5c-0.8,0.9-1.3,2.5-1.6,3.8    c-0.2,0.6-0.6,1.9-0.8,1.9c-4.6,0.4-3.2,5.1-6.8,6.8c-1.2,0.6-3.6,0.3-4.5,1.5c-0.9,1.3-0.9,2.6-1.5,4.1c-0.3,0.8-1.1,2.1-1.3,2.1    c-3.2,0.8-3.4,4.9-5.5,6.8c-1.1,0.9-2.8,1-3.8,2.2c-1.2,1.7-0.1,3.8-0.8,5.5c-1,2.7-5.2,2.4-4.9,5.9c-2.2,0-4.6-0.4-6.4,0.8    c-0.5,0.4-1,1.5-0.6,2.1c0.2,0.3,0.9,0.4,0.9,0.4c0,0,0.2,0,0.2,0s0,0,0.1,0c9.4-0.5,19.6-1.7,28.9-1.2c2,0.1,4,0.8,6,0.9    c6.8,0.3,14.3-0.9,21.2-0.9c6.1,0,12.3-0.3,18.4-0.3c2.5,0,5,0,7.5,0c0.3,0,0.9,0,0.9,0.2c0,0.3,0.7,0.7,1.1,0.7    C93.7,85.5,94,83.3,92.9,82.3z M55.8,82c-4.2,0.1-8.7,1-12.9,0.9c-3.3-0.1-5.9-0.9-9.2-0.8c-5.3,0.2-10.7,0.3-16.1,0.5    c-0.1-0.2-0.2-0.3-0.4-0.3c-0.2,0-0.5,0.2-0.9,0.4c-0.2,0-0.3,0-0.5,0c0.4-0.5,1-1.1,1.1-1.1c1.5-0.8,3.8-1.8,4.3-3.7    c0.3-1-0.2-2.1,0-3.1c0.2-0.6,0.4-1.8,0.6-1.9c1.2-0.6,2.7-1.2,3.6-2.2c1-1.1,1.8-4.6,3.2-5.4c0.9-0.5,1.7-0.3,2.4-1.2    c1.2-1.6,2.2-5.7,2.4-5.7c2.3-0.5,4.7-1.1,6.2-3.1c1-1.3,2.1-4.4,2.2-4.4c1.6,0,3-0.7,3.6-2.2c0.6-1.5,1.8-4.5,1.9-4.6    c1.9-0.2,4.4-1.6,6.3-3.3c0,0.1,0,0.2,0,0.3c0.4,1.7,2.7,3.1,3.7,4.2c1,1.1,1.2,2.4,2,3.6c1.5,2.1,4,2.5,5.8,4    c1.4,1.1,2.4,2.8,4.1,3.8c1.1,0.6,3.5,0.3,4.2,1.2c1.1,1.4,0.9,4,2.1,5.5c0.9,1.1,3.8,2,3.8,2.1c0.7,1.5,1.2,3.5,2.2,4.8    c1.3,1.8,3.7,1.8,4.4,4.1c0.5,1.7,1,2.9,2,4.4c0.5,0.7,1.4,2.1,1.4,2.1c-0.1,0.2-0.1,0.5,0,0.8c-0.3,0-0.6,0-0.9,0.1l0.9,0    c0,0,0,0,0,0C78.3,81.8,67,81.6,55.8,82z" style="" fill="currentColor"></path><path d="M29.3,73.1c0-0.1-0.1-0.2-0.1-0.3c0,0.1,0,0.1,0,0.2c-0.8-0.5-2.2-0.6-2.5,0.5c-0.3,0.9,0.7,1.9,1.2,2.5    c0.6,0.8,1.3-0.3,1.5-0.8c0.2-0.6,0.2-1.3,0-1.9c0.1,0.1,0.3,0.2,0.2,0.1C29.5,73.3,29.4,73.2,29.3,73.1z" style="" fill="currentColor"></path><path d="M36.2,64.9L36,64.8c-0.9-0.3-2.5-0.1-2.8,1c-0.3,0.8,1.5,2.2,1.6,2.3c0.8,0.3,1.6,0.5,2.2-0.4c0.3-0.3,0.4-1.2,0.6-1.4    C38.1,65.8,36.2,64.9,36.2,64.9z" style="" fill="currentColor"></path><path d="M43.1,58.4c-0.3-0.2-0.6-0.3-0.9-0.3C41.9,58,41.6,58,41.6,58l0.3,0.1c-1.7,0.2-3.4,2.8-2.4,4.4c0.6,0.9,1.8,1,2.5,0.3    c0.4-0.4,0.8-1.5,0.9-1.7c0.5-0.6,1.1-1.4,0.8-2.2C43.6,58.7,43.4,58.5,43.1,58.4z" style="" fill="currentColor"></path><path d="M46.1,63.7c-0.6,0.7-1.4,1.5-1.4,2.5c0,1,0.9,1.9,2,1.6C48.8,67.3,48.4,61.1,46.1,63.7z" style="" fill="currentColor"></path><path d="M48.7,51.9c-0.7,0.4-1.3,1.2-2,1.5c-0.3,0.1-0.8,0.4-0.9,0.5c-0.1,0.1-0.3,0.2-0.4,0.3c-0.8,0.6-0.9,2.1,0.2,2.6    c0.6,0.3,1.8-0.3,1.9-0.4c0.6-0.4,1.8-1.3,1.8-1.3c0.1-0.5,0.2-1.1,0.5-1.5c0.2-0.3,0.6-0.4,0.7-0.8c0.1-0.4,0-0.7-0.2-0.9    C50,51.6,49.2,51.6,48.7,51.9z" style="" fill="currentColor"></path><path d="M49.2,50.2c0.5,0.2,2.9-0.6,3.2-1c1-1,0-3.2-1.4-3.1c-1,0.1-2.3,1.3-2.6,2.2C48.3,49,48.5,50,49.2,50.2z" style="" fill="currentColor"></path><path d="M61.1,56.1c0-0.1-0.1-0.3-0.2-0.4l0.2,0.2c0-0.3-0.3-0.5-0.6-0.6l0,0l0,0c-0.3-0.1-0.7,0-0.9,0.1    c-1.4,0.7-2.6,2.8-0.8,3.8c1.1,0.6,4.2-0.4,4.5-1.6C63.5,56.7,61.1,56.3,61.1,56.1z" style="" fill="currentColor"></path><path d="M53,63.1l0.4,0.1c-0.4,0-0.7,0.1-0.7,0.1c0,0-0.2,0-0.3,0.1c-0.6,0.4-1.5,0.9-1.2,1.9c0.2,0.8,2.2,0.9,2.4,0.9    c0.3,0.1,0.8-0.3,0.9-0.4c0.9-0.3,2.4-0.8,1.7-2C55.6,62.8,53,63.1,53,63.1z" style="" fill="currentColor"></path><path d="M52.5,69.7c-0.4,0.8,1.1,2,1.8,1.7c0.4-0.2,0.6-0.6,0.7-1.1c0-0.5-0.1-0.9-0.4-1.2C54.2,68.6,52.8,69.1,52.5,69.7z" style="" fill="currentColor"></path><path d="M34,71.2c-0.4-0.3-0.9-0.4-1.4-0.4c-0.1,0-0.2,0-0.2,0l0.1,0c-0.5,0-1,0.2-1.3,0.7c-0.4,0.7,0,1.8,0.8,2.1    c0.5,0.2,1.5-0.3,1.7-0.3c0.7-0.2,1.2-1,0.9-1.7C34.5,71.4,34.3,71.3,34,71.2z" style="" fill="currentColor"></path><path d="M51.3,36.2c0.5-0.7,0.9-2.6,0.2-3.3c-0.3-0.3-1.2-0.4-1.2-0.4l0.1,0.1c-0.5-0.1-1.1,0.1-1.6,0.6c-0.5,0.5-0.1,2.1-0.1,2.3    C48.6,37.2,50.3,37.9,51.3,36.2z" style="" fill="currentColor"></path><path d="M42.3,26.2c1,0.9,4.6,0.9,5.2-0.4c0.4-0.8-2.2-1.7-2.4-1.8c-0.1-0.1-0.3-0.3-0.5-0.4c-0.1-0.1-0.2-0.1-0.4-0.2l0.2,0    C43,22.4,40.8,24.8,42.3,26.2z M44,26h0.2C44.1,26.1,44,26,44,26z" style="" fill="currentColor"></path><path d="M41.1,19.1c0.6,0.1,1.3-1.2,1.4-1.3c0.1-0.1,0.1-0.5,0.1-0.6c0.1-0.1,0-0.3-0.1-0.4c-0.1-0.3-0.4-0.5-0.6-0.6    c-0.1-0.1-0.2-0.2-0.2-0.2l0.2,0.1c-0.7-0.1-1.7,0.5-2,1.3C39.7,18.1,40.6,19,41.1,19.1z" style="" fill="currentColor"></path><path d="M49.7,23.3c0.4,0,1.2-0.6,1.3-0.6c1.1,0.2,2.1-2.4,2.2-2.6c0.6-0.8,1.4-0.9,1.4-2c0-0.1-0.1-0.2-0.1-0.3l0,0    c-1-2.5-5.3,1.9-5.7,3C48.5,21.6,48.8,23.2,49.7,23.3z" style="" fill="currentColor"></path><path d="M53.4,29c0.1,0.4,0.6,1.2,0.8,1.2c0,0,0,0-0.1,0.1c-0.5,0.7,0.6,1.9,1.5,1.8c0.9-0.1,2.2-1.6,2.4-2.4    c0.2-0.8-0.3-2-1.1-2.4c-0.2-0.1-0.5-0.1-0.7-0.1c-0.2,0-0.5-0.1-0.8,0c-0.6,0.1-1.5,0.8-1.5,0.8C53.7,28.3,53.4,28.9,53.4,29z" style="" fill="currentColor"></path><path d="M56.4,37.4c1.1,0.5,2.2-2.7,2.2-2.8c0-0.1-0.1-0.1-0.1-0.2l0.1,0.1c-0.1-0.6-0.4-0.8-0.8-0.8c0,0,0,0,0,0l0,0    C56.6,33.7,54.7,36.6,56.4,37.4z" style="" fill="currentColor"></path><path d="M60.9,18.2c0.8-0.5,3-1.7,2.7-3c-0.1-0.2-0.2-0.4-0.4-0.6c-0.2-0.3-0.4-0.6-0.8-0.7c-0.8-0.3-2.4,0.9-2.4,0.9    c-0.4,0.1-1.2,0.5-1.3,0.5c-0.5,0.3-1.2,1.4-1.3,1.5C55.3,18.9,59.7,18.9,60.9,18.2z" style="" fill="currentColor"></path><path d="M62.1,28.9c-0.8,0-1.6,0.7-1.7,1.5c0,0.5,0.8,1.2,0.8,1.4C63.2,34.3,65.2,28.9,62.1,28.9z" style="" fill="currentColor"></path>
			</svg>