<svg xmlns="http://www.w3.org/2000/svg" xmlns:xlink="http://www.w3.org/1999/xlink" xmlns:sketch="http://www.bohemiancoding.com/sketch/ns" viewBox="0 0 100 100" version="1.1" x="0px" y="0px" style="color:#FF7F00">
<title style="" fill="currentColor">free</title><desc style="" fill="currentColor">Created with Sketch.</desc>
<g stroke="currentColor" stroke-width="1" fill="none" fill-rule="evenodd" sketch:type="MSPage" style="">
<path d="M71.8061674,59.3459251 C73.9620044,59.3459251 75.7164097,57.5915198 75.7164097,55.4356828 C75.7164097,53.280837 73.9620044,51.5264317 71.8061674,51.5264317 C69.6503304,51.5264317 67.8959251,53.280837 67.8959251,55.4356828 C67.8959251,57.5915198 69.6503304,59.3459251 71.8061674,59.3459251 L71.8061674,59.3459251 Z M90.2422907,63.9609031 L68.0703744,63.9609031 L60.4689427,55.4356828 L68.0703744,46.9114537 L90.2422907,46.9114537 L90.2422907,63.9609031 Z M92.6211454,42.1547357 L91.0352423,42.1547357 L91.0352423,22.7264317 C91.0352423,21.4150881 89.9677313,20.3475771 88.6563877,20.3475771 L84.0969163,20.3475771 L84.0969163,11.823348 C84.0969163,10.5120044 83.0294053,9.44449339 81.7180617,9.44449339 L70.6335903,9.44449339 C69.6741189,9.44449339 68.8147577,10.0164097 68.4420705,10.8995595 C68.1318282,11.6370044 68.2101322,12.4725771 68.6512115,13.1386564 C69.0932819,13.8047357 69.8346916,14.2022026 70.6335903,14.2022026 L79.339207,14.2022026 L79.339207,20.3475771 L66.0394273,20.3475771 C65.0809471,20.3475771 64.2205947,20.9194934 63.8479075,21.8026432 C63.5376652,22.5390969 63.6159692,23.3756608 64.0580396,24.0417401 C64.5001101,24.7078194 65.2415198,25.1052863 66.0394273,25.1052863 L86.277533,25.1052863 L86.277533,42.1547357 L67.0048458,42.1547357 C66.3258811,42.1547357 65.6776432,42.444163 65.2286344,42.9506608 L55.5030837,53.8527533 C54.6992291,54.7547357 54.6982379,56.11663 55.5030837,57.0196035 L65.2286344,67.9226872 C65.6806167,68.4281938 66.3288546,68.7176211 67.0048458,68.7176211 L86.277533,68.7176211 L86.277533,85.7670705 L38.4784141,85.7670705 C37.5199339,85.7670705 36.6585903,86.3379956 36.2859031,87.2211454 C35.9756608,87.9575991 36.0539648,88.7951542 36.4960352,89.4612335 C36.9390969,90.1273128 37.6795154,90.5237885 38.4784141,90.5237885 L88.6563877,90.5237885 C89.9677313,90.5237885 91.0352423,89.4572687 91.0352423,88.1449339 L91.0352423,68.7176211 L92.6211454,68.7176211 C93.932489,68.7176211 95,67.6511013 95,66.3387665 L95,44.5325991 C95,43.2212555 93.932489,42.1547357 92.6211454,42.1547357 L92.6211454,42.1547357 Z M64.9084802,5.18931718 C64.6140969,5.06442731 64.3038546,5 63.9856828,5 C63.0262115,5 62.1648678,5.5719163 61.7921806,6.45704846 L25.8932819,91.6646476 C25.6464758,92.2504405 25.642511,92.896696 25.8823789,93.4854626 C26.1222467,94.0742291 26.5762115,94.534141 27.1620044,94.7809471 C27.4553965,94.9048458 27.76663,94.9672907 28.0848018,94.9672907 C29.0442731,94.9672907 29.9056167,94.3963656 30.278304,93.5122247 L66.1762115,8.30363436 C66.686674,7.09438326 66.1177313,5.69779736 64.9084802,5.18931718 L64.9084802,5.18931718 Z M21.4368943,85.7670705 L17.2907489,85.7670705 C13.1376652,85.7670705 9.75770925,82.3871145 9.75770925,78.2330396 L9.75770925,24.4957048 C10.6894273,24.8921806 11.7420705,25.1052863 12.7838106,25.1052863 L48.9979075,25.1052863 C49.95837,25.1052863 50.8187225,24.53337 51.1904185,23.6502203 C51.5006608,22.9137665 51.4223568,22.0772026 50.9802863,21.4111233 C50.5382159,20.7450441 49.7977974,20.3475771 48.9979075,20.3475771 L12.7768722,20.3475771 C11.111674,20.3475771 9.75770925,18.9926211 9.75770925,17.3294053 L9.75770925,17.228304 C9.75770925,15.5601322 11.1156388,14.2022026 12.7838106,14.2022026 L53.5920705,14.2022026 C54.5515419,14.2022026 55.4118943,13.6302863 55.7845815,12.7471366 C56.0948238,12.0106828 56.0165198,11.1741189 55.5744493,10.5080396 C55.1323789,9.84196035 54.3919604,9.44449339 53.5920705,9.44449339 L12.7838106,9.44449339 C8.48601322,9.44449339 5,12.9305066 5,17.2144273 L5,78.2330396 C5,85.010793 10.5139868,90.5237885 17.2907489,90.5237885 L21.4368943,90.5237885 C22.3963656,90.5237885 23.2567181,89.9528634 23.6284141,89.0687225 C23.9386564,88.3322687 23.8603524,87.4957048 23.4182819,86.8296256 C22.9772026,86.1635463 22.235793,85.7670705 21.4368943,85.7670705 L21.4368943,85.7670705 Z" fill="currentColor" sketch:type="MSShapeGroup" style=""></path></g></svg>