<svg xmlns="http://www.w3.org/2000/svg" data-name="Layer 1" viewBox="0 0 100 100" x="0px" y="0px" style="color:#FF7F00">
			<title style="" fill="currentColor">Artboard 5</title>
			<path d="M51,30h-9v18h9c5,0,9-4,9-9C60,34,56,30,51,30z M51,45h-6V33h6c3.3,0,6,2.7,6,6S54.3,45,51,45z" style="" fill="currentColor"></path><path d="M84,0H12C5.4,0,0,5.4,0,12v24v24v24c0,6.6,5.4,12,12,12h72c6.6,0,12-5.4,12-12V60V36V12C96,5.4,90.6,0,84,0z M93,36v24v24  c0,5-4,9-9,9H12c-5,0-9-4-9-9V60V36V12c0-5,4-9,9-9h72c5,0,9,4,9,9V36z" style="" fill="currentColor"></path><path d="M54,21H43.5H39h-7.5c-0.8,0-1.5,0.7-1.5,1.5v51c0,0.8,0.7,1.5,1.5,1.5h12c0.8,0,1.5-0.7,1.5-1.5V57h9c9.9,0,18-8.1,18-18  S63.9,21,54,21z M54,54H42v18h-9V24h21c8.3,0,15,6.7,15,15S62.3,54,54,54z" style="" fill="currentColor"></path>
			</svg>
