<svg xmlns="http://www.w3.org/2000/svg" data-name="Layer 1" viewBox="0 0 100 100" x="0px" y="0px" style="color:#FF7F00">
			<title style="" fill="currentColor">Artboard 5</title>
			<path d="M94.65,72.037L94.34,28.321l-0.401-0.767L49.988,2h-0.403h-0.403L5.194,27.557l-0.401,0.739L5.08,72.03l0.262,0.513   L49.386,98h0.806l44.173-25.434L94.65,72.037z M77.714,61.714l-13.419-7.763l0.509-31.618l13.416,7.789L77.714,61.714z    M93.058,70.591l-14.281-8.262l0.521-32.549l-0.268-0.473l-14.479-8.381l-0.806,0.456l-0.708,31.953L50,45.906V4.243l42.539,24.55   L93.058,70.591z M49,4.243v41.859l-14.632,8.467L6.734,70.572L6.542,28.79L49,4.243z M49.79,96.594L7.471,72.05l3.791-2.21   l38.424-22.285l39.04,22.462l3.503,2.027L49.79,96.594z" style="" fill="currentColor"></path><path d="M21.755,48.601l16.035-9.454L38,38.684V22.462L37.22,22l-16.022,9.454L21,31.917v16.222L21.755,48.601z M22,32.224   l15-8.824v14.978l-15,8.824V32.224z" style="" fill="currentColor"></path>
			</svg>