<svg width="667" height="556" viewBox="0 0 667 556" fill="none" xmlns="http://www.w3.org/2000/svg">
<path d="M202.674 281.978C201.87 281.978 201.162 281.81 200.55 281.474C199.938 281.138 199.452 280.682 199.092 280.106C198.744 279.518 198.48 278.864 198.3 278.144C198.132 277.412 198.048 276.626 198.048 275.786C198.048 274.658 198.216 273.638 198.552 272.726C198.888 271.814 199.428 271.064 200.172 270.476C200.928 269.876 201.846 269.576 202.926 269.576C204.306 269.576 205.416 270.056 206.256 271.016L205.5 272.132C204.804 271.316 203.946 270.908 202.926 270.908C202.182 270.908 201.546 271.142 201.018 271.61C200.502 272.078 200.124 272.66 199.884 273.356C199.656 274.04 199.542 274.796 199.542 275.624C199.542 275.828 199.548 275.984 199.56 276.092C199.86 275.612 200.322 275.18 200.946 274.796C201.582 274.412 202.254 274.22 202.962 274.22C204.102 274.22 205.038 274.556 205.77 275.228C206.514 275.888 206.886 276.83 206.886 278.054C206.886 279.146 206.502 280.076 205.734 280.844C204.966 281.6 203.946 281.978 202.674 281.978ZM202.62 280.646C203.484 280.646 204.156 280.388 204.636 279.872C205.128 279.344 205.374 278.756 205.374 278.108C205.374 277.268 205.116 276.626 204.6 276.182C204.084 275.738 203.418 275.516 202.602 275.516C202.014 275.516 201.45 275.684 200.91 276.02C200.37 276.344 199.932 276.776 199.596 277.316C199.68 278.204 199.968 278.984 200.46 279.656C200.952 280.316 201.672 280.646 202.62 280.646Z" fill="#B68058"/>
<path d="M254.377 64.1899C252.625 64.1899 251.155 63.6139 249.967 62.4619C248.791 61.2979 248.203 59.8039 248.203 57.9799C248.203 56.1559 248.791 54.6679 249.967 53.5159C251.155 52.3519 252.625 51.7699 254.377 51.7699C256.297 51.7699 257.815 52.5619 258.931 54.1459L257.671 54.8479C257.323 54.3319 256.855 53.9119 256.267 53.5879C255.679 53.2639 255.049 53.1019 254.377 53.1019C253.057 53.1019 251.953 53.5639 251.065 54.4879C250.189 55.3999 249.751 56.5639 249.751 57.9799C249.751 59.3959 250.189 60.5659 251.065 61.4899C251.953 62.4019 253.057 62.8579 254.377 62.8579C255.049 62.8579 255.679 62.7019 256.267 62.3899C256.855 62.0659 257.323 61.6399 257.671 61.1119L258.949 61.8139C257.785 63.3979 256.261 64.1899 254.377 64.1899ZM259.721 66.1879V62.8579C260.165 62.7739 260.513 62.5099 260.765 62.0659C261.017 61.6099 261.221 60.7759 261.377 59.5639L261.935 55.2799H267.983V62.7859H268.991V66.1879H267.641V63.9739H261.071V66.1879H259.721ZM263.123 56.4679L262.727 59.7259C262.523 61.2499 262.103 62.2699 261.467 62.7859H266.633V56.4679H263.123ZM274.761 64.1899C273.465 64.1899 272.403 63.7699 271.575 62.9299C270.747 62.0779 270.333 60.9739 270.333 59.6179C270.333 58.3459 270.741 57.2719 271.557 56.3959C272.373 55.5079 273.393 55.0639 274.617 55.0639C275.901 55.0639 276.915 55.5079 277.659 56.3959C278.415 57.2719 278.793 58.3819 278.793 59.7259V60.0679H271.755C271.815 60.9199 272.127 61.6339 272.691 62.2099C273.255 62.7859 273.987 63.0739 274.887 63.0739C275.967 63.0739 276.861 62.7079 277.569 61.9759L278.217 62.8579C277.329 63.7459 276.177 64.1899 274.761 64.1899ZM277.461 59.0779C277.449 58.3339 277.197 57.6679 276.705 57.0799C276.213 56.4799 275.511 56.1799 274.599 56.1799C273.735 56.1799 273.051 56.4739 272.547 57.0619C272.055 57.6499 271.791 58.3219 271.755 59.0779H277.461ZM285.263 64.1899C284.039 64.1899 283.061 63.6799 282.329 62.6599V67.2859H280.979V55.2799H282.329V56.5759C282.653 56.1199 283.073 55.7539 283.589 55.4779C284.105 55.2019 284.663 55.0639 285.263 55.0639C286.415 55.0639 287.345 55.4779 288.053 56.3059C288.773 57.1219 289.133 58.2259 289.133 59.6179C289.133 61.0099 288.773 62.1199 288.053 62.9479C287.345 63.7759 286.415 64.1899 285.263 64.1899ZM284.921 62.9839C285.773 62.9839 286.451 62.6719 286.955 62.0479C287.459 61.4119 287.711 60.6019 287.711 59.6179C287.711 58.6339 287.459 57.8299 286.955 57.2059C286.451 56.5819 285.773 56.2699 284.921 56.2699C284.405 56.2699 283.901 56.4079 283.409 56.6839C282.929 56.9479 282.569 57.2719 282.329 57.6559V61.5799C282.569 61.9759 282.929 62.3119 283.409 62.5879C283.901 62.8519 284.405 62.9839 284.921 62.9839ZM291.242 63.9739H289.514L293.384 59.2219L289.532 55.2799H291.242L294.986 59.1139V55.2799H296.336V59.0959L300.08 55.2799H301.79L297.92 59.2219L301.808 63.9739H300.08L296.948 60.0679L296.336 60.6799V63.9739H294.986V60.6799L294.374 60.0679L291.242 63.9739ZM310.195 63.9739H308.845V62.9839C308.113 63.7879 307.153 64.1899 305.965 64.1899C305.161 64.1899 304.453 63.9319 303.841 63.4159C303.229 62.8999 302.923 62.1979 302.923 61.3099C302.923 60.3979 303.223 59.6959 303.823 59.2039C304.435 58.6999 305.149 58.4479 305.965 58.4479C307.201 58.4479 308.161 58.8439 308.845 59.6359V58.0699C308.845 57.4939 308.641 57.0439 308.233 56.7199C307.825 56.3959 307.297 56.2339 306.649 56.2339C305.629 56.2339 304.741 56.6359 303.985 57.4399L303.355 56.5039C304.279 55.5439 305.437 55.0639 306.829 55.0639C307.825 55.0639 308.635 55.3039 309.259 55.7839C309.883 56.2639 310.195 57.0019 310.195 57.9979V63.9739ZM306.451 63.2179C307.531 63.2179 308.329 62.8579 308.845 62.1379V60.4999C308.329 59.7799 307.531 59.4199 306.451 59.4199C305.827 59.4199 305.311 59.5999 304.903 59.9599C304.507 60.3079 304.309 60.7639 304.309 61.3279C304.309 61.8799 304.507 62.3359 304.903 62.6959C305.311 63.0439 305.827 63.2179 306.451 63.2179ZM314.251 63.9739H312.901V55.2799H314.251V58.8979H318.787V55.2799H320.137V63.9739H318.787V60.0859H314.251V63.9739ZM324.183 63.9739H322.833V55.2799H324.183V58.8979H328.719V55.2799H330.069V63.9739H328.719V60.0859H324.183V63.9739ZM339.55 63.9739H338.2V62.9839C337.468 63.7879 336.508 64.1899 335.32 64.1899C334.516 64.1899 333.808 63.9319 333.196 63.4159C332.584 62.8999 332.278 62.1979 332.278 61.3099C332.278 60.3979 332.578 59.6959 333.178 59.2039C333.79 58.6999 334.504 58.4479 335.32 58.4479C336.556 58.4479 337.516 58.8439 338.2 59.6359V58.0699C338.2 57.4939 337.996 57.0439 337.588 56.7199C337.18 56.3959 336.652 56.2339 336.004 56.2339C334.984 56.2339 334.096 56.6359 333.34 57.4399L332.71 56.5039C333.634 55.5439 334.792 55.0639 336.184 55.0639C337.18 55.0639 337.99 55.3039 338.614 55.7839C339.238 56.2639 339.55 57.0019 339.55 57.9979V63.9739ZM335.806 63.2179C336.886 63.2179 337.684 62.8579 338.2 62.1379V60.4999C337.684 59.7799 336.886 59.4199 335.806 59.4199C335.182 59.4199 334.666 59.5999 334.258 59.9599C333.862 60.3079 333.664 60.7639 333.664 61.3279C333.664 61.8799 333.862 62.3359 334.258 62.6959C334.666 63.0439 335.182 63.2179 335.806 63.2179ZM343.552 63.9739H341.968L344.29 60.5539C343.63 60.4699 343.09 60.1939 342.67 59.7259C342.262 59.2579 342.058 58.6639 342.058 57.9439C342.058 57.1759 342.304 56.5399 342.796 56.0359C343.288 55.5319 343.96 55.2799 344.812 55.2799H349.402V63.9739H348.052V60.6079H345.676L343.552 63.9739ZM344.956 59.4199H348.052V56.4679H344.956C344.488 56.4679 344.116 56.6059 343.84 56.8819C343.576 57.1459 343.444 57.4999 343.444 57.9439C343.444 58.3879 343.576 58.7479 343.84 59.0239C344.104 59.2879 344.476 59.4199 344.956 59.4199ZM363.977 63.9739H362.627V56.4679H358.091V63.9739H356.741V55.2799H363.977V63.9739ZM373.458 63.9739H372.108V62.9839C371.376 63.7879 370.416 64.1899 369.228 64.1899C368.424 64.1899 367.716 63.9319 367.104 63.4159C366.492 62.8999 366.186 62.1979 366.186 61.3099C366.186 60.3979 366.486 59.6959 367.086 59.2039C367.698 58.6999 368.412 58.4479 369.228 58.4479C370.464 58.4479 371.424 58.8439 372.108 59.6359V58.0699C372.108 57.4939 371.904 57.0439 371.496 56.7199C371.088 56.3959 370.56 56.2339 369.912 56.2339C368.892 56.2339 368.004 56.6359 367.248 57.4399L366.618 56.5039C367.542 55.5439 368.7 55.0639 370.092 55.0639C371.088 55.0639 371.898 55.3039 372.522 55.7839C373.146 56.2639 373.458 57.0019 373.458 57.9979V63.9739ZM369.714 63.2179C370.794 63.2179 371.592 62.8579 372.108 62.1379V60.4999C371.592 59.7799 370.794 59.4199 369.714 59.4199C369.09 59.4199 368.574 59.5999 368.166 59.9599C367.77 60.3079 367.572 60.7639 367.572 61.3279C367.572 61.8799 367.77 62.3359 368.166 62.6959C368.574 63.0439 369.09 63.2179 369.714 63.2179ZM375.139 64.1899V63.0739C375.547 63.0739 375.883 62.8039 376.147 62.2639C376.411 61.7239 376.627 60.8239 376.795 59.5639L377.353 55.2799H383.401V63.9739H382.051V56.4679H378.541L378.145 59.7259C377.953 61.3219 377.617 62.4679 377.137 63.1639C376.657 63.8479 375.991 64.1899 375.139 64.1899ZM387.392 63.9739H386.096V55.2799H387.446V61.9219L392 55.2799H393.332V63.9739H391.982V57.2059L387.392 63.9739ZM398.962 63.9739H397.612V56.4679H395.092V55.2799H401.5V56.4679H398.962V63.9739ZM407.554 64.1899C406.33 64.1899 405.352 63.6799 404.62 62.6599V67.2859H403.27V55.2799H404.62V56.5759C404.944 56.1199 405.364 55.7539 405.88 55.4779C406.396 55.2019 406.954 55.0639 407.554 55.0639C408.706 55.0639 409.636 55.4779 410.344 56.3059C411.064 57.1219 411.424 58.2259 411.424 59.6179C411.424 61.0099 411.064 62.1199 410.344 62.9479C409.636 63.7759 408.706 64.1899 407.554 64.1899ZM407.212 62.9839C408.064 62.9839 408.742 62.6719 409.246 62.0479C409.75 61.4119 410.002 60.6019 410.002 59.6179C410.002 58.6339 409.75 57.8299 409.246 57.2059C408.742 56.5819 408.064 56.2699 407.212 56.2699C406.696 56.2699 406.192 56.4079 405.7 56.6839C405.22 56.9479 404.86 57.2719 404.62 57.6559V61.5799C404.86 61.9759 405.22 62.3119 405.7 62.5879C406.192 62.8519 406.696 62.9839 407.212 62.9839ZM420.357 63.9739H419.007V62.9839C418.275 63.7879 417.315 64.1899 416.127 64.1899C415.323 64.1899 414.615 63.9319 414.003 63.4159C413.391 62.8999 413.085 62.1979 413.085 61.3099C413.085 60.3979 413.385 59.6959 413.985 59.2039C414.597 58.6999 415.311 58.4479 416.127 58.4479C417.363 58.4479 418.323 58.8439 419.007 59.6359V58.0699C419.007 57.4939 418.803 57.0439 418.395 56.7199C417.987 56.3959 417.459 56.2339 416.811 56.2339C415.791 56.2339 414.903 56.6359 414.147 57.4399L413.517 56.5039C414.441 55.5439 415.599 55.0639 416.991 55.0639C417.987 55.0639 418.797 55.3039 419.421 55.7839C420.045 56.2639 420.357 57.0019 420.357 57.9979V63.9739ZM416.613 63.2179C417.693 63.2179 418.491 62.8579 419.007 62.1379V60.4999C418.491 59.7799 417.693 59.4199 416.613 59.4199C415.989 59.4199 415.473 59.5999 415.065 59.9599C414.669 60.3079 414.471 60.7639 414.471 61.3279C414.471 61.8799 414.669 62.3359 415.065 62.6959C415.473 63.0439 415.989 63.2179 416.613 63.2179Z" fill="#B68058"/>
<path d="M76.9179 124.613H75.4239V112.607H80.2479C81.4119 112.607 82.3299 112.955 83.0019 113.651C83.6739 114.347 84.0099 115.205 84.0099 116.225C84.0099 117.245 83.6679 118.103 82.9839 118.799C82.3119 119.495 81.3999 119.843 80.2479 119.843H76.9179V124.613ZM80.0679 118.511C80.7759 118.511 81.3519 118.301 81.7959 117.881C82.2399 117.449 82.4619 116.897 82.4619 116.225C82.4619 115.553 82.2399 115.007 81.7959 114.587C81.3519 114.155 80.7759 113.939 80.0679 113.939H76.9179V118.511H80.0679ZM92.6178 123.515C91.8378 124.391 90.7998 124.829 89.5038 124.829C88.2078 124.829 87.1638 124.391 86.3718 123.515C85.5918 122.639 85.2018 121.553 85.2018 120.257C85.2018 118.961 85.5918 117.881 86.3718 117.017C87.1638 116.141 88.2078 115.703 89.5038 115.703C90.7998 115.703 91.8378 116.141 92.6178 117.017C93.4098 117.881 93.8058 118.961 93.8058 120.257C93.8058 121.553 93.4098 122.639 92.6178 123.515ZM87.3798 122.651C87.9078 123.299 88.6158 123.623 89.5038 123.623C90.3918 123.623 91.0938 123.299 91.6098 122.651C92.1258 121.991 92.3838 121.193 92.3838 120.257C92.3838 119.321 92.1258 118.529 91.6098 117.881C91.0938 117.233 90.3918 116.909 89.5038 116.909C88.6158 116.909 87.9078 117.239 87.3798 117.899C86.8638 118.547 86.6058 119.333 86.6058 120.257C86.6058 121.193 86.8638 121.991 87.3798 122.651ZM104.881 124.613H103.531V117.791L100.705 124.613H100.201L97.3566 117.791V124.613H96.0066V115.919H97.7886L100.453 122.363L103.081 115.919H104.881V124.613ZM114.359 124.613H113.009V123.623C112.277 124.427 111.317 124.829 110.129 124.829C109.325 124.829 108.617 124.571 108.005 124.055C107.393 123.539 107.087 122.837 107.087 121.949C107.087 121.037 107.387 120.335 107.987 119.843C108.599 119.339 109.313 119.087 110.129 119.087C111.365 119.087 112.325 119.483 113.009 120.275V118.709C113.009 118.133 112.805 117.683 112.397 117.359C111.989 117.035 111.461 116.873 110.813 116.873C109.793 116.873 108.905 117.275 108.149 118.079L107.519 117.143C108.443 116.183 109.601 115.703 110.993 115.703C111.989 115.703 112.799 115.943 113.423 116.423C114.047 116.903 114.359 117.641 114.359 118.637V124.613ZM110.615 123.857C111.695 123.857 112.493 123.497 113.009 122.777V121.139C112.493 120.419 111.695 120.059 110.615 120.059C109.991 120.059 109.475 120.239 109.067 120.599C108.671 120.947 108.473 121.403 108.473 121.967C108.473 122.519 108.671 122.975 109.067 123.335C109.475 123.683 109.991 123.857 110.615 123.857ZM118.415 124.613H117.065V115.919H118.415V119.537H122.951V115.919H124.301V124.613H122.951V120.725H118.415V124.613ZM129.931 124.613H128.581V117.107H126.061V115.919H132.469V117.107H129.931V124.613ZM135.535 124.613H134.239V115.919H135.589V122.561L140.143 115.919H141.475V124.613H140.125V117.845L135.535 124.613ZM143.991 115.919H145.341V118.367C145.341 119.147 145.521 119.687 145.881 119.987C146.241 120.287 146.799 120.437 147.555 120.437C148.491 120.437 149.259 120.281 149.859 119.969V115.919H151.209V124.613H149.859V121.067C149.091 121.451 148.209 121.643 147.213 121.643C146.085 121.643 145.263 121.415 144.747 120.959C144.243 120.503 143.991 119.777 143.991 118.781V115.919ZM155.259 124.613H153.909V115.919H155.259V119.537H159.795V115.919H161.145V124.613H159.795V120.725H155.259V124.613ZM163.841 115.919H165.191V119.285H168.449C169.313 119.285 169.985 119.543 170.465 120.059C170.945 120.563 171.185 121.193 171.185 121.949C171.185 122.705 170.939 123.341 170.447 123.857C169.967 124.361 169.301 124.613 168.449 124.613H163.841V115.919ZM168.305 120.473H165.191V123.425H168.305C168.785 123.425 169.151 123.293 169.403 123.029C169.667 122.753 169.799 122.393 169.799 121.949C169.799 121.505 169.667 121.151 169.403 120.887C169.151 120.611 168.785 120.473 168.305 120.473ZM173.957 124.613H172.607V115.919H173.957V124.613ZM177.951 124.613H176.655V115.919H178.005V122.561L182.559 115.919H183.891V124.613H182.541V117.845L177.951 124.613ZM183.423 113.345C182.643 114.401 181.593 114.929 180.273 114.929C178.965 114.929 177.909 114.401 177.105 113.345L177.771 112.769C178.395 113.633 179.229 114.065 180.273 114.065C181.329 114.065 182.157 113.633 182.757 112.769L183.423 113.345Z" fill="#B68058"/>
<path d="M485.241 124.613H483.747V114.731L479.661 124.613H479.049L474.981 114.731V124.613H473.487V112.607H475.629L479.355 121.643L483.099 112.607H485.241V124.613ZM489.283 124.613H487.987V115.919H489.337V122.561L493.891 115.919H495.223V124.613H493.873V117.845L489.283 124.613ZM499.269 124.613H497.919V115.919H499.269V119.537H503.805V115.919H505.155V124.613H503.805V120.725H499.269V124.613ZM509.147 124.613H507.851V115.919H509.201V122.561L513.755 115.919H515.087V124.613H513.737V117.845L509.147 124.613ZM526.656 124.613H525.306V117.791L522.48 124.613H521.976L519.132 117.791V124.613H517.782V115.919H519.564L522.228 122.363L524.856 115.919H526.656V124.613ZM536.135 124.613H534.785V123.623C534.053 124.427 533.093 124.829 531.905 124.829C531.101 124.829 530.393 124.571 529.781 124.055C529.169 123.539 528.863 122.837 528.863 121.949C528.863 121.037 529.163 120.335 529.763 119.843C530.375 119.339 531.089 119.087 531.905 119.087C533.141 119.087 534.101 119.483 534.785 120.275V118.709C534.785 118.133 534.581 117.683 534.173 117.359C533.765 117.035 533.237 116.873 532.589 116.873C531.569 116.873 530.681 117.275 529.925 118.079L529.295 117.143C530.219 116.183 531.377 115.703 532.769 115.703C533.765 115.703 534.575 115.943 535.199 116.423C535.823 116.903 536.135 117.641 536.135 118.637V124.613ZM532.391 123.857C533.471 123.857 534.269 123.497 534.785 122.777V121.139C534.269 120.419 533.471 120.059 532.391 120.059C531.767 120.059 531.251 120.239 530.843 120.599C530.447 120.947 530.249 121.403 530.249 121.967C530.249 122.519 530.447 122.975 530.843 123.335C531.251 123.683 531.767 123.857 532.391 123.857ZM537.815 124.829V123.713C538.223 123.713 538.559 123.443 538.823 122.903C539.087 122.363 539.303 121.463 539.471 120.203L540.029 115.919H546.077V124.613H544.727V117.107H541.217L540.821 120.365C540.629 121.961 540.293 123.107 539.813 123.803C539.333 124.487 538.667 124.829 537.815 124.829ZM550.068 124.613H548.772V115.919H550.122V122.561L554.676 115.919H556.008V124.613H554.658V117.845L550.068 124.613ZM562.538 124.829C561.254 124.829 560.21 124.397 559.406 123.533C558.602 122.657 558.2 121.565 558.2 120.257C558.2 118.949 558.602 117.863 559.406 116.999C560.21 116.135 561.254 115.703 562.538 115.703C563.882 115.703 564.944 116.207 565.724 117.215L564.824 118.043C564.272 117.287 563.534 116.909 562.61 116.909C561.698 116.909 560.966 117.221 560.414 117.845C559.874 118.469 559.604 119.273 559.604 120.257C559.604 121.241 559.874 122.051 560.414 122.687C560.966 123.311 561.698 123.623 562.61 123.623C563.522 123.623 564.26 123.245 564.824 122.489L565.724 123.317C564.944 124.325 563.882 124.829 562.538 124.829ZM570.55 124.613H569.2V117.107H566.68V115.919H573.088V117.107H570.55V124.613ZM576.154 124.613H574.858V115.919H576.208V122.561L580.762 115.919H582.094V124.613H580.744V117.845L576.154 124.613ZM584.61 115.919H585.96V118.367C585.96 119.147 586.14 119.687 586.5 119.987C586.86 120.287 587.418 120.437 588.174 120.437C589.11 120.437 589.878 120.281 590.478 119.969V115.919H591.828V124.613H590.478V121.067C589.71 121.451 588.828 121.643 587.832 121.643C586.704 121.643 585.882 121.415 585.366 120.959C584.862 120.503 584.61 119.777 584.61 118.781V115.919ZM595.878 124.613H594.528V115.919H595.878V119.537H600.414V115.919H601.764V124.613H600.414V120.725H595.878V124.613ZM604.46 115.919H605.81V119.285H609.068C609.932 119.285 610.604 119.543 611.084 120.059C611.564 120.563 611.804 121.193 611.804 121.949C611.804 122.705 611.558 123.341 611.066 123.857C610.586 124.361 609.92 124.613 609.068 124.613H604.46V115.919ZM608.924 120.473H605.81V123.425H608.924C609.404 123.425 609.77 123.293 610.022 123.029C610.286 122.753 610.418 122.393 610.418 121.949C610.418 121.505 610.286 121.151 610.022 120.887C609.77 120.611 609.404 120.473 608.924 120.473ZM614.576 124.613H613.226V115.919H614.576V124.613ZM618.57 124.613H617.274V115.919H618.624V122.561L623.178 115.919H624.51V124.613H623.16V117.845L618.57 124.613ZM624.042 113.345C623.262 114.401 622.212 114.929 620.892 114.929C619.584 114.929 618.528 114.401 617.724 113.345L618.39 112.769C619.014 113.633 619.848 114.065 620.892 114.065C621.948 114.065 622.776 113.633 623.376 112.769L624.042 113.345Z" fill="#B68058"/>
<path d="M18.7562 296.281H16.9022L12.3482 290.881L11.1422 292.249V296.281H9.64819V284.275H11.1422V290.485L16.4522 284.275H18.3242L13.3202 289.981L18.7562 296.281ZM19.3787 296.497V295.381C19.7867 295.381 20.1227 295.111 20.3867 294.571C20.6507 294.031 20.8667 293.131 21.0347 291.871L21.5927 287.587H27.6407V296.281H26.2907V288.775H22.7807L22.3847 292.033C22.1927 293.629 21.8567 294.775 21.3767 295.471C20.8967 296.155 20.2307 296.497 19.3787 296.497ZM37.1224 296.281H35.7724V295.291C35.0404 296.095 34.0804 296.497 32.8924 296.497C32.0884 296.497 31.3804 296.239 30.7684 295.723C30.1564 295.207 29.8504 294.505 29.8504 293.617C29.8504 292.705 30.1504 292.003 30.7504 291.511C31.3624 291.007 32.0764 290.755 32.8924 290.755C34.1284 290.755 35.0884 291.151 35.7724 291.943V290.377C35.7724 289.801 35.5684 289.351 35.1604 289.027C34.7524 288.703 34.2244 288.541 33.5764 288.541C32.5564 288.541 31.6684 288.943 30.9124 289.747L30.2824 288.811C31.2064 287.851 32.3644 287.371 33.7564 287.371C34.7524 287.371 35.5624 287.611 36.1864 288.091C36.8104 288.571 37.1224 289.309 37.1224 290.305V296.281ZM33.3784 295.525C34.4584 295.525 35.2564 295.165 35.7724 294.445V292.807C35.2564 292.087 34.4584 291.727 33.3784 291.727C32.7544 291.727 32.2384 291.907 31.8304 292.267C31.4344 292.615 31.2364 293.071 31.2364 293.635C31.2364 294.187 31.4344 294.643 31.8304 295.003C32.2384 295.351 32.7544 295.525 33.3784 295.525ZM43.6626 296.497C42.3786 296.497 41.3346 296.065 40.5306 295.201C39.7266 294.325 39.3246 293.233 39.3246 291.925C39.3246 290.617 39.7266 289.531 40.5306 288.667C41.3346 287.803 42.3786 287.371 43.6626 287.371C45.0066 287.371 46.0686 287.875 46.8486 288.883L45.9486 289.711C45.3966 288.955 44.6586 288.577 43.7346 288.577C42.8226 288.577 42.0906 288.889 41.5386 289.513C40.9986 290.137 40.7286 290.941 40.7286 291.925C40.7286 292.909 40.9986 293.719 41.5386 294.355C42.0906 294.979 42.8226 295.291 43.7346 295.291C44.6466 295.291 45.3846 294.913 45.9486 294.157L46.8486 294.985C46.0686 295.993 45.0066 296.497 43.6626 296.497ZM52.5747 296.497C51.2907 296.497 50.2467 296.065 49.4427 295.201C48.6387 294.325 48.2367 293.233 48.2367 291.925C48.2367 290.617 48.6387 289.531 49.4427 288.667C50.2467 287.803 51.2907 287.371 52.5747 287.371C53.9187 287.371 54.9807 287.875 55.7607 288.883L54.8607 289.711C54.3087 288.955 53.5707 288.577 52.6467 288.577C51.7347 288.577 51.0027 288.889 50.4507 289.513C49.9107 290.137 49.6407 290.941 49.6407 291.925C49.6407 292.909 49.9107 293.719 50.4507 294.355C51.0027 294.979 51.7347 295.291 52.6467 295.291C53.5587 295.291 54.2967 294.913 54.8607 294.157L55.7607 294.985C54.9807 295.993 53.9187 296.497 52.5747 296.497ZM58.9488 296.281H57.6528V287.587H59.0028V294.229L63.5568 287.587H64.8888V296.281H63.5388V289.513L58.9488 296.281ZM67.4044 287.587H68.7544V290.035C68.7544 290.815 68.9344 291.355 69.2944 291.655C69.6544 291.955 70.2124 292.105 70.9684 292.105C71.9044 292.105 72.6724 291.949 73.2724 291.637V287.587H74.6224V296.281H73.2724V292.735C72.5044 293.119 71.6224 293.311 70.6264 293.311C69.4984 293.311 68.6764 293.083 68.1604 292.627C67.6564 292.171 67.4044 291.445 67.4044 290.449V287.587ZM81.2467 296.497C79.9507 296.497 78.8887 296.077 78.0607 295.237C77.2327 294.385 76.8187 293.281 76.8187 291.925C76.8187 290.653 77.2267 289.579 78.0427 288.703C78.8587 287.815 79.8787 287.371 81.1027 287.371C82.3867 287.371 83.4007 287.815 84.1447 288.703C84.9007 289.579 85.2787 290.689 85.2787 292.033V292.375H78.2407C78.3007 293.227 78.6127 293.941 79.1767 294.517C79.7407 295.093 80.4727 295.381 81.3727 295.381C82.4527 295.381 83.3467 295.015 84.0547 294.283L84.7027 295.165C83.8147 296.053 82.6627 296.497 81.2467 296.497ZM83.9467 291.385C83.9347 290.641 83.6827 289.975 83.1907 289.387C82.6987 288.787 81.9967 288.487 81.0847 288.487C80.2207 288.487 79.5367 288.781 79.0327 289.369C78.5407 289.957 78.2767 290.629 78.2407 291.385H83.9467ZM91.2993 296.497C90.0153 296.497 88.9713 296.065 88.1673 295.201C87.3633 294.325 86.9613 293.233 86.9613 291.925C86.9613 290.617 87.3633 289.531 88.1673 288.667C88.9713 287.803 90.0153 287.371 91.2993 287.371C92.6433 287.371 93.7053 287.875 94.4853 288.883L93.5853 289.711C93.0333 288.955 92.2953 288.577 91.3713 288.577C90.4593 288.577 89.7273 288.889 89.1753 289.513C88.6353 290.137 88.3653 290.941 88.3653 291.925C88.3653 292.909 88.6353 293.719 89.1753 294.355C89.7273 294.979 90.4593 295.291 91.3713 295.291C92.2833 295.291 93.0213 294.913 93.5853 294.157L94.4853 294.985C93.7053 295.993 92.6433 296.497 91.2993 296.497ZM104.027 296.281H102.299L99.1674 292.375L97.7274 293.797V296.281H96.3774V287.587H97.7274V292.213L102.299 287.587H104.009L100.157 291.529L104.027 296.281ZM106.919 296.281H105.623V287.587H106.973V294.229L111.527 287.587H112.859V296.281H111.509V289.513L106.919 296.281ZM116.851 296.281H115.555V287.587H116.905V294.229L121.459 287.587H122.791V296.281H121.441V289.513L116.851 296.281ZM122.323 285.013C121.543 286.069 120.493 286.597 119.173 286.597C117.865 286.597 116.809 286.069 116.005 285.013L116.671 284.437C117.295 285.301 118.129 285.733 119.173 285.733C120.229 285.733 121.057 285.301 121.657 284.437L122.323 285.013Z" fill="#B68058"/>
<path d="M547.54 296.497C545.788 296.497 544.318 295.921 543.13 294.769C541.954 293.605 541.366 292.111 541.366 290.287C541.366 288.463 541.954 286.975 543.13 285.823C544.318 284.659 545.788 284.077 547.54 284.077C549.46 284.077 550.978 284.869 552.094 286.453L550.834 287.155C550.486 286.639 550.018 286.219 549.43 285.895C548.842 285.571 548.212 285.409 547.54 285.409C546.22 285.409 545.116 285.871 544.228 286.795C543.352 287.707 542.914 288.871 542.914 290.287C542.914 291.703 543.352 292.873 544.228 293.797C545.116 294.709 546.22 295.165 547.54 295.165C548.212 295.165 548.842 295.009 549.43 294.697C550.018 294.373 550.486 293.947 550.834 293.419L552.112 294.121C550.948 295.705 549.424 296.497 547.54 296.497ZM560.874 295.183C560.094 296.059 559.056 296.497 557.76 296.497C556.464 296.497 555.42 296.059 554.628 295.183C553.848 294.307 553.458 293.221 553.458 291.925C553.458 290.629 553.848 289.549 554.628 288.685C555.42 287.809 556.464 287.371 557.76 287.371C559.056 287.371 560.094 287.809 560.874 288.685C561.666 289.549 562.062 290.629 562.062 291.925C562.062 293.221 561.666 294.307 560.874 295.183ZM555.636 294.319C556.164 294.967 556.872 295.291 557.76 295.291C558.648 295.291 559.35 294.967 559.866 294.319C560.382 293.659 560.64 292.861 560.64 291.925C560.64 290.989 560.382 290.197 559.866 289.549C559.35 288.901 558.648 288.577 557.76 288.577C556.872 288.577 556.164 288.907 555.636 289.567C555.12 290.215 554.862 291.001 554.862 291.925C554.862 292.861 555.12 293.659 555.636 294.319ZM569.141 296.281H564.263V287.587H569.051C569.807 287.587 570.401 287.791 570.833 288.199C571.277 288.607 571.499 289.147 571.499 289.819C571.499 290.311 571.361 290.737 571.085 291.097C570.821 291.445 570.491 291.679 570.095 291.799C570.539 291.907 570.911 292.165 571.211 292.573C571.523 292.981 571.679 293.431 571.679 293.923C571.679 294.631 571.451 295.201 570.995 295.633C570.551 296.065 569.933 296.281 569.141 296.281ZM568.871 295.093C569.303 295.093 569.645 294.973 569.897 294.733C570.149 294.493 570.275 294.169 570.275 293.761C570.275 293.389 570.149 293.071 569.897 292.807C569.645 292.543 569.303 292.411 568.871 292.411H565.613V295.093H568.871ZM568.817 291.223C569.225 291.223 569.543 291.115 569.771 290.899C569.999 290.671 570.113 290.377 570.113 290.017C570.113 289.633 569.999 289.333 569.771 289.117C569.543 288.889 569.225 288.775 568.817 288.775H565.613V291.223H568.817ZM578.514 296.497C577.29 296.497 576.312 295.987 575.58 294.967V299.593H574.23V287.587H575.58V288.883C575.904 288.427 576.324 288.061 576.84 287.785C577.356 287.509 577.914 287.371 578.514 287.371C579.666 287.371 580.596 287.785 581.304 288.613C582.024 289.429 582.384 290.533 582.384 291.925C582.384 293.317 582.024 294.427 581.304 295.255C580.596 296.083 579.666 296.497 578.514 296.497ZM578.172 295.291C579.024 295.291 579.702 294.979 580.206 294.355C580.71 293.719 580.962 292.909 580.962 291.925C580.962 290.941 580.71 290.137 580.206 289.513C579.702 288.889 579.024 288.577 578.172 288.577C577.656 288.577 577.152 288.715 576.66 288.991C576.18 289.255 575.82 289.579 575.58 289.963V293.887C575.82 294.283 576.18 294.619 576.66 294.895C577.152 295.159 577.656 295.291 578.172 295.291ZM588.454 296.497C587.158 296.497 586.096 296.077 585.268 295.237C584.44 294.385 584.026 293.281 584.026 291.925C584.026 290.653 584.434 289.579 585.25 288.703C586.066 287.815 587.086 287.371 588.31 287.371C589.594 287.371 590.608 287.815 591.352 288.703C592.108 289.579 592.486 290.689 592.486 292.033V292.375H585.448C585.508 293.227 585.82 293.941 586.384 294.517C586.948 295.093 587.68 295.381 588.58 295.381C589.66 295.381 590.554 295.015 591.262 294.283L591.91 295.165C591.022 296.053 589.87 296.497 588.454 296.497ZM591.154 291.385C591.142 290.641 590.89 289.975 590.398 289.387C589.906 288.787 589.204 288.487 588.292 288.487C587.428 288.487 586.744 288.781 586.24 289.369C585.748 289.957 585.484 290.629 585.448 291.385H591.154ZM603.547 296.281H602.197V289.459L599.371 296.281H598.867L596.023 289.459V296.281H594.673V287.587H596.455L599.119 294.031L601.747 287.587H603.547V296.281ZM610.163 296.497C608.867 296.497 607.805 296.077 606.977 295.237C606.149 294.385 605.735 293.281 605.735 291.925C605.735 290.653 606.143 289.579 606.959 288.703C607.775 287.815 608.795 287.371 610.019 287.371C611.303 287.371 612.317 287.815 613.061 288.703C613.817 289.579 614.195 290.689 614.195 292.033V292.375H607.157C607.217 293.227 607.529 293.941 608.093 294.517C608.657 295.093 609.389 295.381 610.289 295.381C611.369 295.381 612.263 295.015 612.971 294.283L613.619 295.165C612.731 296.053 611.579 296.497 610.163 296.497ZM612.863 291.385C612.851 290.641 612.599 289.975 612.107 289.387C611.615 288.787 610.913 288.487 610.001 288.487C609.137 288.487 608.453 288.781 607.949 289.369C607.457 289.957 607.193 290.629 607.157 291.385H612.863ZM617.732 296.281H616.382V287.587H617.732V291.205H622.268V287.587H623.618V296.281H622.268V292.393H617.732V296.281ZM627.663 296.281H626.313V287.587H627.663V291.205H632.199V287.587H633.549V296.281H632.199V292.393H627.663V296.281ZM636.245 287.587H637.595V290.953H640.853C641.717 290.953 642.389 291.211 642.869 291.727C643.349 292.231 643.589 292.861 643.589 293.617C643.589 294.373 643.343 295.009 642.851 295.525C642.371 296.029 641.705 296.281 640.853 296.281H636.245V287.587ZM640.709 292.141H637.595V295.093H640.709C641.189 295.093 641.555 294.961 641.807 294.697C642.071 294.421 642.203 294.061 642.203 293.617C642.203 293.173 642.071 292.819 641.807 292.555C641.555 292.279 641.189 292.141 640.709 292.141ZM646.361 296.281H645.011V287.587H646.361V296.281ZM650.356 296.281H649.06V287.587H650.41V294.229L654.964 287.587H656.296V296.281H654.946V289.513L650.356 296.281ZM655.828 285.013C655.048 286.069 653.998 286.597 652.678 286.597C651.37 286.597 650.314 286.069 649.51 285.013L650.176 284.437C650.8 285.301 651.634 285.733 652.678 285.733C653.734 285.733 654.562 285.301 655.162 284.437L655.828 285.013Z" fill="#B68058"/>
<path d="M101.542 480.76H100.102V468.754H101.596V478.132L108.508 468.754H110.038V480.76H108.544V471.184L101.542 480.76ZM115.87 480.976C114.202 480.976 112.894 480.502 111.946 479.554L112.612 478.69C113.428 479.47 114.514 479.86 115.87 479.86C116.65 479.86 117.268 479.722 117.724 479.446C118.192 479.17 118.426 478.804 118.426 478.348C118.426 477.388 117.514 476.908 115.69 476.908H113.746V475.81H115.69C116.446 475.81 117.064 475.69 117.544 475.45C118.024 475.198 118.264 474.832 118.264 474.352C118.264 473.944 118.024 473.614 117.544 473.362C117.064 473.098 116.458 472.966 115.726 472.966C114.514 472.966 113.542 473.338 112.81 474.082L112.108 473.254C113.008 472.33 114.196 471.868 115.672 471.868C116.86 471.856 117.82 472.06 118.552 472.48C119.296 472.888 119.668 473.458 119.668 474.19C119.668 474.79 119.422 475.276 118.93 475.648C118.45 476.02 117.916 476.242 117.328 476.314C117.94 476.362 118.51 476.566 119.038 476.926C119.578 477.286 119.848 477.79 119.848 478.438C119.848 479.182 119.488 479.794 118.768 480.274C118.06 480.742 117.094 480.976 115.87 480.976ZM128.95 479.662C128.17 480.538 127.132 480.976 125.836 480.976C124.54 480.976 123.496 480.538 122.704 479.662C121.924 478.786 121.534 477.7 121.534 476.404C121.534 475.108 121.924 474.028 122.704 473.164C123.496 472.288 124.54 471.85 125.836 471.85C127.132 471.85 128.17 472.288 128.95 473.164C129.742 474.028 130.138 475.108 130.138 476.404C130.138 477.7 129.742 478.786 128.95 479.662ZM123.712 478.798C124.24 479.446 124.948 479.77 125.836 479.77C126.724 479.77 127.426 479.446 127.942 478.798C128.458 478.138 128.716 477.34 128.716 476.404C128.716 475.468 128.458 474.676 127.942 474.028C127.426 473.38 126.724 473.056 125.836 473.056C124.948 473.056 124.24 473.386 123.712 474.046C123.196 474.694 122.938 475.48 122.938 476.404C122.938 477.34 123.196 478.138 123.712 478.798ZM134.013 478.798C134.541 479.446 135.249 479.77 136.137 479.77C137.025 479.77 137.727 479.446 138.243 478.798C138.759 478.138 139.017 477.334 139.017 476.386C139.017 475.462 138.759 474.676 138.243 474.028C137.727 473.38 137.025 473.056 136.137 473.056C135.249 473.056 134.541 473.38 134.013 474.028C133.497 474.676 133.239 475.462 133.239 476.386C133.239 477.334 133.497 478.138 134.013 478.798ZM136.137 480.976C134.829 480.976 133.785 480.514 133.005 479.59C132.225 478.666 131.835 477.472 131.835 476.008C131.835 473.944 132.207 472.42 132.951 471.436C133.695 470.44 134.841 469.84 136.389 469.636C137.313 469.492 137.949 469.354 138.297 469.222C138.657 469.09 138.837 468.934 138.837 468.754H140.151C140.151 469.09 140.049 469.384 139.845 469.636C139.641 469.876 139.347 470.068 138.963 470.212C138.591 470.356 138.237 470.47 137.901 470.554C137.577 470.626 137.187 470.692 136.731 470.752C135.531 470.92 134.661 471.25 134.121 471.742C133.593 472.234 133.245 472.888 133.077 473.704C133.869 472.468 134.961 471.85 136.353 471.85C137.553 471.85 138.531 472.288 139.287 473.164C140.043 474.04 140.421 475.114 140.421 476.386C140.421 477.682 140.031 478.774 139.251 479.662C138.471 480.538 137.433 480.976 136.137 480.976ZM144.023 480.76H142.727V472.066H144.077V478.708L148.631 472.066H149.963V480.76H148.613V473.992L144.023 480.76ZM151.633 480.976V479.86C152.041 479.86 152.377 479.59 152.641 479.05C152.905 478.51 153.121 477.61 153.289 476.35L153.847 472.066H159.895V480.76H158.545V473.254H155.035L154.639 476.512C154.447 478.108 154.111 479.254 153.631 479.95C153.151 480.634 152.485 480.976 151.633 480.976ZM162.591 472.066H163.941V475.432H167.199C168.063 475.432 168.735 475.69 169.215 476.206C169.695 476.71 169.935 477.34 169.935 478.096C169.935 478.852 169.689 479.488 169.197 480.004C168.717 480.508 168.051 480.76 167.199 480.76H162.591V472.066ZM167.055 476.62H163.941V479.572H167.055C167.535 479.572 167.901 479.44 168.153 479.176C168.417 478.9 168.549 478.54 168.549 478.096C168.549 477.652 168.417 477.298 168.153 477.034C167.901 476.758 167.535 476.62 167.055 476.62ZM173.345 480.76H171.995V472.066H173.345V475.684H177.881V472.066H179.231V480.76H177.881V476.872H173.345V480.76ZM181.926 472.066H183.276V475.432H186.534C187.398 475.432 188.07 475.69 188.55 476.206C189.03 476.71 189.27 477.34 189.27 478.096C189.27 478.852 189.024 479.488 188.532 480.004C188.052 480.508 187.386 480.76 186.534 480.76H181.926V472.066ZM186.39 476.62H183.276V479.572H186.39C186.87 479.572 187.236 479.44 187.488 479.176C187.752 478.9 187.884 478.54 187.884 478.096C187.884 477.652 187.752 477.298 187.488 477.034C187.236 476.758 186.87 476.62 186.39 476.62ZM192.042 480.76H190.692V472.066H192.042V480.76ZM196.037 480.76H194.741V472.066H196.091V478.708L200.645 472.066H201.977V480.76H200.627V473.992L196.037 480.76ZM201.509 469.492C200.729 470.548 199.679 471.076 198.359 471.076C197.051 471.076 195.995 470.548 195.191 469.492L195.857 468.916C196.481 469.78 197.315 470.212 198.359 470.212C199.415 470.212 200.243 469.78 200.843 468.916L201.509 469.492Z" fill="#B68058"/>
<path d="M460.554 468.754H468.348V470.086H462.048V473.524H465.378C466.53 473.524 467.442 473.872 468.114 474.568C468.798 475.264 469.14 476.122 469.14 477.142C469.14 478.162 468.804 479.02 468.132 479.716C467.46 480.412 466.542 480.76 465.378 480.76H460.554V468.754ZM465.198 474.856H462.048V479.428H465.198C465.906 479.428 466.482 479.218 466.926 478.798C467.37 478.366 467.592 477.814 467.592 477.142C467.592 476.47 467.37 475.924 466.926 475.504C466.482 475.072 465.906 474.856 465.198 474.856ZM475.348 480.976C474.124 480.976 473.146 480.466 472.414 479.446V484.072H471.064V472.066H472.414V473.362C472.738 472.906 473.158 472.54 473.674 472.264C474.19 471.988 474.748 471.85 475.348 471.85C476.5 471.85 477.43 472.264 478.138 473.092C478.858 473.908 479.218 475.012 479.218 476.404C479.218 477.796 478.858 478.906 478.138 479.734C477.43 480.562 476.5 480.976 475.348 480.976ZM475.006 479.77C475.858 479.77 476.536 479.458 477.04 478.834C477.544 478.198 477.796 477.388 477.796 476.404C477.796 475.42 477.544 474.616 477.04 473.992C476.536 473.368 475.858 473.056 475.006 473.056C474.49 473.056 473.986 473.194 473.494 473.47C473.014 473.734 472.654 474.058 472.414 474.442V478.366C472.654 478.762 473.014 479.098 473.494 479.374C473.986 479.638 474.49 479.77 475.006 479.77ZM480.879 484.162L481.095 482.938C481.311 483.034 481.557 483.082 481.833 483.082C482.145 483.082 482.403 483.016 482.607 482.884C482.811 482.752 482.985 482.512 483.129 482.164L483.705 480.85L480.069 472.066H481.527L484.425 479.194L487.305 472.066H488.781L484.425 482.524C483.945 483.676 483.093 484.264 481.869 484.288C481.509 484.288 481.179 484.246 480.879 484.162ZM493.123 480.76H491.773V473.254H489.253V472.066H495.661V473.254H493.123V480.76ZM504.218 480.76H502.868V479.77C502.136 480.574 501.176 480.976 499.988 480.976C499.184 480.976 498.476 480.718 497.864 480.202C497.252 479.686 496.946 478.984 496.946 478.096C496.946 477.184 497.246 476.482 497.846 475.99C498.458 475.486 499.172 475.234 499.988 475.234C501.224 475.234 502.184 475.63 502.868 476.422V474.856C502.868 474.28 502.664 473.83 502.256 473.506C501.848 473.182 501.32 473.02 500.672 473.02C499.652 473.02 498.764 473.422 498.008 474.226L497.378 473.29C498.302 472.33 499.46 471.85 500.852 471.85C501.848 471.85 502.658 472.09 503.282 472.57C503.906 473.05 504.218 473.788 504.218 474.784V480.76ZM500.474 480.004C501.554 480.004 502.352 479.644 502.868 478.924V477.286C502.352 476.566 501.554 476.206 500.474 476.206C499.85 476.206 499.334 476.386 498.926 476.746C498.53 477.094 498.332 477.55 498.332 478.114C498.332 478.666 498.53 479.122 498.926 479.482C499.334 479.83 499.85 480.004 500.474 480.004ZM505.898 480.976V479.86C506.306 479.86 506.642 479.59 506.906 479.05C507.17 478.51 507.386 477.61 507.554 476.35L508.112 472.066H514.16V480.76H512.81V473.254H509.3L508.904 476.512C508.712 478.108 508.376 479.254 507.896 479.95C507.416 480.634 506.75 480.976 505.898 480.976ZM516.855 472.066H518.205V475.432H521.463C522.327 475.432 522.999 475.69 523.479 476.206C523.959 476.71 524.199 477.34 524.199 478.096C524.199 478.852 523.953 479.488 523.461 480.004C522.981 480.508 522.315 480.76 521.463 480.76H516.855V472.066ZM521.319 476.62H518.205V479.572H521.319C521.799 479.572 522.165 479.44 522.417 479.176C522.681 478.9 522.813 478.54 522.813 478.096C522.813 477.652 522.681 477.298 522.417 477.034C522.165 476.758 521.799 476.62 521.319 476.62ZM527.61 480.76H526.26V472.066H527.61V475.684H532.146V472.066H533.496V480.76H532.146V476.872H527.61V480.76ZM536.191 472.066H537.541V475.432H540.799C541.663 475.432 542.335 475.69 542.815 476.206C543.295 476.71 543.535 477.34 543.535 478.096C543.535 478.852 543.289 479.488 542.797 480.004C542.317 480.508 541.651 480.76 540.799 480.76H536.191V472.066ZM540.655 476.62H537.541V479.572H540.655C541.135 479.572 541.501 479.44 541.753 479.176C542.017 478.9 542.149 478.54 542.149 478.096C542.149 477.652 542.017 477.298 541.753 477.034C541.501 476.758 541.135 476.62 540.655 476.62ZM546.307 480.76H544.957V472.066H546.307V480.76ZM550.302 480.76H549.006V472.066H550.356V478.708L554.91 472.066H556.242V480.76H554.892V473.992L550.302 480.76ZM555.774 469.492C554.994 470.548 553.944 471.076 552.624 471.076C551.316 471.076 550.26 470.548 549.456 469.492L550.122 468.916C550.746 469.78 551.58 470.212 552.624 470.212C553.68 470.212 554.508 469.78 555.108 468.916L555.774 469.492Z" fill="#B68058"/>
<path d="M274.48 548.448C272.728 548.448 271.258 547.872 270.07 546.72C268.894 545.556 268.306 544.062 268.306 542.238C268.306 540.414 268.894 538.926 270.07 537.774C271.258 536.61 272.728 536.028 274.48 536.028C276.4 536.028 277.918 536.82 279.034 538.404L277.774 539.106C277.426 538.59 276.958 538.17 276.37 537.846C275.782 537.522 275.152 537.36 274.48 537.36C273.16 537.36 272.056 537.822 271.168 538.746C270.292 539.658 269.854 540.822 269.854 542.238C269.854 543.654 270.292 544.824 271.168 545.748C272.056 546.66 273.16 547.116 274.48 547.116C275.152 547.116 275.782 546.96 276.37 546.648C276.958 546.324 277.426 545.898 277.774 545.37L279.052 546.072C277.888 547.656 276.364 548.448 274.48 548.448ZM289.776 548.232H288.426V541.41L285.6 548.232H285.096L282.252 541.41V548.232H280.902V539.538H282.684L285.348 545.982L287.976 539.538H289.776V548.232ZM296.392 548.448C295.096 548.448 294.034 548.028 293.206 547.188C292.378 546.336 291.964 545.232 291.964 543.876C291.964 542.604 292.372 541.53 293.188 540.654C294.004 539.766 295.024 539.322 296.248 539.322C297.532 539.322 298.546 539.766 299.29 540.654C300.046 541.53 300.424 542.64 300.424 543.984V544.326H293.386C293.446 545.178 293.758 545.892 294.322 546.468C294.886 547.044 295.618 547.332 296.518 547.332C297.598 547.332 298.492 546.966 299.2 546.234L299.848 547.116C298.96 548.004 297.808 548.448 296.392 548.448ZM299.092 543.336C299.08 542.592 298.828 541.926 298.336 541.338C297.844 540.738 297.142 540.438 296.23 540.438C295.366 540.438 294.682 540.732 294.178 541.32C293.686 541.908 293.422 542.58 293.386 543.336H299.092ZM301.585 548.448V547.332C301.993 547.332 302.329 547.062 302.593 546.522C302.857 545.982 303.073 545.082 303.241 543.822L303.799 539.538H309.847V548.232H308.497V540.726H304.987L304.591 543.984C304.399 545.58 304.063 546.726 303.583 547.422C303.103 548.106 302.437 548.448 301.585 548.448ZM319.328 548.232H317.978V547.242C317.246 548.046 316.286 548.448 315.098 548.448C314.294 548.448 313.586 548.19 312.974 547.674C312.362 547.158 312.056 546.456 312.056 545.568C312.056 544.656 312.356 543.954 312.956 543.462C313.568 542.958 314.282 542.706 315.098 542.706C316.334 542.706 317.294 543.102 317.978 543.894V542.328C317.978 541.752 317.774 541.302 317.366 540.978C316.958 540.654 316.43 540.492 315.782 540.492C314.762 540.492 313.874 540.894 313.118 541.698L312.488 540.762C313.412 539.802 314.57 539.322 315.962 539.322C316.958 539.322 317.768 539.562 318.392 540.042C319.016 540.522 319.328 541.26 319.328 542.256V548.232ZM315.584 547.476C316.664 547.476 317.462 547.116 317.978 546.396V544.758C317.462 544.038 316.664 543.678 315.584 543.678C314.96 543.678 314.444 543.858 314.036 544.218C313.64 544.566 313.442 545.022 313.442 545.586C313.442 546.138 313.64 546.594 314.036 546.954C314.444 547.302 314.96 547.476 315.584 547.476ZM323.33 548.232H321.746L324.068 544.812C323.408 544.728 322.868 544.452 322.448 543.984C322.04 543.516 321.836 542.922 321.836 542.202C321.836 541.434 322.082 540.798 322.574 540.294C323.066 539.79 323.738 539.538 324.59 539.538H329.18V548.232H327.83V544.866H325.454L323.33 548.232ZM324.734 543.678H327.83V540.726H324.734C324.266 540.726 323.894 540.864 323.618 541.14C323.354 541.404 323.222 541.758 323.222 542.202C323.222 542.646 323.354 543.006 323.618 543.282C323.882 543.546 324.254 543.678 324.734 543.678ZM343.755 548.232H342.405V540.726H337.869V548.232H336.519V539.538H343.755V548.232ZM353.236 548.232H351.886V547.242C351.154 548.046 350.194 548.448 349.006 548.448C348.202 548.448 347.494 548.19 346.882 547.674C346.27 547.158 345.964 546.456 345.964 545.568C345.964 544.656 346.264 543.954 346.864 543.462C347.476 542.958 348.19 542.706 349.006 542.706C350.242 542.706 351.202 543.102 351.886 543.894V542.328C351.886 541.752 351.682 541.302 351.274 540.978C350.866 540.654 350.338 540.492 349.69 540.492C348.67 540.492 347.782 540.894 347.026 541.698L346.396 540.762C347.32 539.802 348.478 539.322 349.87 539.322C350.866 539.322 351.676 539.562 352.3 540.042C352.924 540.522 353.236 541.26 353.236 542.256V548.232ZM349.492 547.476C350.572 547.476 351.37 547.116 351.886 546.396V544.758C351.37 544.038 350.572 543.678 349.492 543.678C348.868 543.678 348.352 543.858 347.944 544.218C347.548 544.566 347.35 545.022 347.35 545.586C347.35 546.138 347.548 546.594 347.944 546.954C348.352 547.302 348.868 547.476 349.492 547.476ZM354.917 548.448V547.332C355.325 547.332 355.661 547.062 355.925 546.522C356.189 545.982 356.405 545.082 356.573 543.822L357.131 539.538H363.179V548.232H361.829V540.726H358.319L357.923 543.984C357.731 545.58 357.395 546.726 356.915 547.422C356.435 548.106 355.769 548.448 354.917 548.448ZM367.17 548.232H365.874V539.538H367.224V546.18L371.778 539.538H373.11V548.232H371.76V541.464L367.17 548.232ZM378.74 548.232H377.39V540.726H374.87V539.538H381.278V540.726H378.74V548.232ZM387.332 548.448C386.108 548.448 385.13 547.938 384.398 546.918V551.544H383.048V539.538H384.398V540.834C384.722 540.378 385.142 540.012 385.658 539.736C386.174 539.46 386.732 539.322 387.332 539.322C388.484 539.322 389.414 539.736 390.122 540.564C390.842 541.38 391.202 542.484 391.202 543.876C391.202 545.268 390.842 546.378 390.122 547.206C389.414 548.034 388.484 548.448 387.332 548.448ZM386.99 547.242C387.842 547.242 388.52 546.93 389.024 546.306C389.528 545.67 389.78 544.86 389.78 543.876C389.78 542.892 389.528 542.088 389.024 541.464C388.52 540.84 387.842 540.528 386.99 540.528C386.474 540.528 385.97 540.666 385.478 540.942C384.998 541.206 384.638 541.53 384.398 541.914V545.838C384.638 546.234 384.998 546.57 385.478 546.846C385.97 547.11 386.474 547.242 386.99 547.242ZM400.135 548.232H398.785V547.242C398.053 548.046 397.093 548.448 395.905 548.448C395.101 548.448 394.393 548.19 393.781 547.674C393.169 547.158 392.863 546.456 392.863 545.568C392.863 544.656 393.163 543.954 393.763 543.462C394.375 542.958 395.089 542.706 395.905 542.706C397.141 542.706 398.101 543.102 398.785 543.894V542.328C398.785 541.752 398.581 541.302 398.173 540.978C397.765 540.654 397.237 540.492 396.589 540.492C395.569 540.492 394.681 540.894 393.925 541.698L393.295 540.762C394.219 539.802 395.377 539.322 396.769 539.322C397.765 539.322 398.575 539.562 399.199 540.042C399.823 540.522 400.135 541.26 400.135 542.256V548.232ZM396.391 547.476C397.471 547.476 398.269 547.116 398.785 546.396V544.758C398.269 544.038 397.471 543.678 396.391 543.678C395.767 543.678 395.251 543.858 394.843 544.218C394.447 544.566 394.249 545.022 394.249 545.586C394.249 546.138 394.447 546.594 394.843 546.954C395.251 547.302 395.767 547.476 396.391 547.476Z" fill="#B68058"/>
<path d="M291.753 253.578H283.509V252.39C284.757 251.406 285.723 250.626 286.407 250.05C287.103 249.462 287.769 248.844 288.405 248.196C289.053 247.536 289.509 246.954 289.773 246.45C290.037 245.934 290.169 245.424 290.169 244.92C290.169 244.2 289.923 243.654 289.431 243.282C288.939 242.91 288.351 242.724 287.667 242.724C286.287 242.724 285.201 243.228 284.409 244.236L283.491 243.282C283.947 242.682 284.541 242.22 285.273 241.896C286.017 241.56 286.815 241.392 287.667 241.392C288.759 241.392 289.701 241.698 290.493 242.31C291.297 242.922 291.699 243.792 291.699 244.92C291.699 246.036 291.219 247.152 290.259 248.268C289.299 249.372 287.835 250.698 285.867 252.246H291.753V253.578Z" fill="#B68058"/>
<path d="M320.205 357.774H318.711V354.732H313.005V353.49L318.153 345.768H320.205V353.418H321.897V354.732H320.205V357.774ZM318.711 353.418V347.154L314.499 353.418H318.711Z" fill="#B68058"/>
<path d="M373.158 333.006H371.664V329.964H365.958V328.722L371.106 321H373.158V328.65H374.85V329.964H373.158V333.006ZM371.664 328.65V322.386L367.452 328.65H371.664Z" fill="#B68058"/>
<path d="M430.711 281.978C429.907 281.978 429.199 281.81 428.587 281.474C427.975 281.138 427.489 280.682 427.129 280.106C426.781 279.518 426.517 278.864 426.337 278.144C426.169 277.412 426.085 276.626 426.085 275.786C426.085 274.658 426.253 273.638 426.589 272.726C426.925 271.814 427.465 271.064 428.209 270.476C428.965 269.876 429.883 269.576 430.963 269.576C432.343 269.576 433.453 270.056 434.293 271.016L433.537 272.132C432.841 271.316 431.983 270.908 430.963 270.908C430.219 270.908 429.583 271.142 429.055 271.61C428.539 272.078 428.161 272.66 427.921 273.356C427.693 274.04 427.579 274.796 427.579 275.624C427.579 275.828 427.585 275.984 427.597 276.092C427.897 275.612 428.359 275.18 428.983 274.796C429.619 274.412 430.291 274.22 430.999 274.22C432.139 274.22 433.075 274.556 433.807 275.228C434.551 275.888 434.923 276.83 434.923 278.054C434.923 279.146 434.539 280.076 433.771 280.844C433.003 281.6 431.983 281.978 430.711 281.978ZM430.657 280.646C431.521 280.646 432.193 280.388 432.673 279.872C433.165 279.344 433.411 278.756 433.411 278.108C433.411 277.268 433.153 276.626 432.637 276.182C432.121 275.738 431.455 275.516 430.639 275.516C430.051 275.516 429.487 275.684 428.947 276.02C428.407 276.344 427.969 276.776 427.633 277.316C427.717 278.204 428.005 278.984 428.497 279.656C428.989 280.316 429.709 280.646 430.657 280.646Z" fill="#B68058"/>
<path d="M440.968 149.381H439.474V139.355L437.548 141.389L436.648 140.471L439.654 137.375H440.968V149.381ZM447.877 149.597C447.085 149.597 446.383 149.417 445.771 149.057C445.171 148.685 444.691 148.193 444.331 147.581C443.983 146.969 443.719 146.309 443.539 145.601C443.371 144.893 443.287 144.155 443.287 143.387C443.287 142.619 443.371 141.881 443.539 141.173C443.719 140.465 443.983 139.811 444.331 139.211C444.691 138.599 445.171 138.113 445.771 137.753C446.383 137.381 447.085 137.195 447.877 137.195C448.657 137.195 449.353 137.381 449.965 137.753C450.577 138.113 451.057 138.599 451.405 139.211C451.765 139.811 452.029 140.465 452.197 141.173C452.377 141.881 452.467 142.619 452.467 143.387C452.467 144.155 452.377 144.893 452.197 145.601C452.029 146.309 451.765 146.969 451.405 147.581C451.057 148.193 450.577 148.685 449.965 149.057C449.353 149.417 448.657 149.597 447.877 149.597ZM446.077 147.527C446.557 148.019 447.157 148.265 447.877 148.265C448.597 148.265 449.197 148.019 449.677 147.527C450.157 147.023 450.487 146.423 450.667 145.727C450.847 145.031 450.937 144.251 450.937 143.387C450.937 142.523 450.847 141.743 450.667 141.047C450.487 140.351 450.157 139.757 449.677 139.265C449.197 138.773 448.597 138.527 447.877 138.527C447.157 138.527 446.557 138.773 446.077 139.265C445.597 139.757 445.267 140.351 445.087 141.047C444.907 141.743 444.817 142.523 444.817 143.387C444.817 144.251 444.907 145.031 445.087 145.727C445.267 146.423 445.597 147.023 446.077 147.527Z" fill="#B68058"/>
<path d="M171.935 416.705H170.441V406.679L168.515 408.713L167.615 407.795L170.621 404.699H171.935V416.705ZM178.845 416.921C178.053 416.921 177.351 416.741 176.739 416.381C176.139 416.009 175.659 415.517 175.299 414.905C174.951 414.293 174.687 413.633 174.507 412.925C174.339 412.217 174.255 411.479 174.255 410.711C174.255 409.943 174.339 409.205 174.507 408.497C174.687 407.789 174.951 407.135 175.299 406.535C175.659 405.923 176.139 405.437 176.739 405.077C177.351 404.705 178.053 404.519 178.845 404.519C179.625 404.519 180.321 404.705 180.933 405.077C181.545 405.437 182.025 405.923 182.373 406.535C182.733 407.135 182.997 407.789 183.165 408.497C183.345 409.205 183.435 409.943 183.435 410.711C183.435 411.479 183.345 412.217 183.165 412.925C182.997 413.633 182.733 414.293 182.373 414.905C182.025 415.517 181.545 416.009 180.933 416.381C180.321 416.741 179.625 416.921 178.845 416.921ZM177.045 414.851C177.525 415.343 178.125 415.589 178.845 415.589C179.565 415.589 180.165 415.343 180.645 414.851C181.125 414.347 181.455 413.747 181.635 413.051C181.815 412.355 181.905 411.575 181.905 410.711C181.905 409.847 181.815 409.067 181.635 408.371C181.455 407.675 181.125 407.081 180.645 406.589C180.165 406.097 179.565 405.851 178.845 405.851C178.125 405.851 177.525 406.097 177.045 406.589C176.565 407.081 176.235 407.675 176.055 408.371C175.875 409.067 175.785 409.847 175.785 410.711C175.785 411.575 175.875 412.355 176.055 413.051C176.235 413.747 176.565 414.347 177.045 414.851Z" fill="#B68058"/>
<circle cx="334.635" cy="279.281" r="196.79" stroke="#C48961"/>
<circle cx="334.635" cy="279.281" r="137.005" stroke="#C48961"/>
<circle cx="334.635" cy="279.281" r="77.2204" stroke="#C48961"/>
<circle cx="334.635" cy="279.281" r="19.1436" stroke="#C48961"/>
<line x1="335.135" y1="81.9907" x2="335.135" y2="476.571" stroke="#C48961"/>
<line x1="531.925" y1="279.781" x2="137.345" y2="279.781" stroke="#C48961"/>
<line x1="473.787" y1="419.14" x2="194.776" y2="140.13" stroke="#C48961"/>
<line x1="194.776" y1="418.433" x2="473.787" y2="139.422" stroke="#C48961"/>
<line x1="333.515" y1="87.4432" x2="471.874" y2="146.374" stroke="#C48961" stroke-width="3"/>
<line x1="447.601" y1="279.887" x2="469.807" y2="147.506" stroke="#C48961" stroke-width="3"/>
<line x1="306.676" y1="251.726" x2="331.444" y2="88.5983" stroke="#C48961" stroke-width="3"/>
<line x1="221.432" y1="278.709" x2="307.693" y2="250.525" stroke="#C48961" stroke-width="3"/>
<line x1="197.359" y1="414.826" x2="220.419" y2="279.883" stroke="#C48961" stroke-width="3"/>
<line x1="333.531" y1="357.521" x2="199.442" y2="416.452" stroke="#C48961" stroke-width="3"/>
<line x1="393.234" y1="335.348" x2="333.449" y2="357.554" stroke="#C48961" stroke-width="3"/>
<line x1="449.279" y1="280.35" x2="393.764" y2="335.01" stroke="#C48961" stroke-width="3"/>
<circle cx="334.208" cy="89.2503" r="7.2596" fill="#B68058"/>
<circle cx="470.859" cy="147.327" r="7.2596" fill="#B68058"/>
<circle cx="448.654" cy="279.708" r="7.2596" fill="#B68058"/>
<circle cx="392.285" cy="333.514" r="7.2596" fill="#B68058"/>
<circle cx="334.208" cy="355.721" r="7.2596" fill="#B68058"/>
<circle cx="198.411" cy="414.651" r="7.2596" fill="#B68058"/>
<circle cx="221.471" cy="279.708" r="7.2596" fill="#B68058"/>
<circle cx="305.17" cy="250.67" r="7.2596" fill="#B68058"/>
<path d="M531.272 428.57L528.277 426.891C528.099 426.316 527.868 425.765 527.591 425.241L528.523 421.932C528.657 421.454 528.523 420.94 528.172 420.589C527.821 420.238 527.306 420.103 526.828 420.238L523.519 421.169C522.996 420.892 522.444 420.662 521.869 420.483L520.19 417.488C519.947 417.055 519.488 416.786 518.992 416.786C518.496 416.786 518.037 417.055 517.794 417.488L516.115 420.483C515.54 420.661 514.989 420.892 514.465 421.169L511.156 420.238C510.678 420.103 510.163 420.238 509.812 420.589C509.462 420.94 509.327 421.454 509.462 421.932L510.393 425.241C510.116 425.765 509.885 426.316 509.707 426.891L506.712 428.57C506.279 428.813 506.01 429.272 506.01 429.768C506.01 430.264 506.279 430.723 506.712 430.966L509.707 432.645C509.897 433.258 510.147 433.845 510.449 434.4L502.918 441.931C502.649 442.201 502.649 442.637 502.918 442.907C503.053 443.041 503.23 443.109 503.406 443.109C503.583 443.109 503.759 443.041 503.894 442.907L511.212 435.588C511.771 436.333 512.433 436.995 513.179 437.553L511.395 439.336C511.126 439.606 511.126 440.042 511.395 440.312C511.53 440.446 511.707 440.514 511.883 440.514C512.06 440.514 512.236 440.446 512.371 440.312L514.367 438.315C514.92 438.616 515.505 438.864 516.115 439.053L517.794 442.048C518.037 442.481 518.496 442.75 518.992 442.75C519.488 442.75 519.947 442.481 520.19 442.048L521.869 439.053C522.444 438.875 522.995 438.644 523.519 438.367L526.828 439.298C526.951 439.333 527.076 439.35 527.2 439.35C527.559 439.35 527.91 439.209 528.171 438.948C528.522 438.597 528.657 438.082 528.522 437.604L527.591 434.296C527.868 433.772 528.099 433.22 528.277 432.645L531.272 430.966C531.705 430.724 531.974 430.265 531.974 429.768C531.974 429.272 531.705 428.813 531.272 428.57ZM527.192 421.569L526.588 423.712C526.134 423.143 525.617 422.626 525.049 422.172L527.192 421.569ZM518.992 418.172L520.078 420.109C519.721 420.07 519.359 420.048 518.992 420.048C518.625 420.048 518.263 420.069 517.906 420.109L518.992 418.172ZM510.793 421.569L512.936 422.172C512.367 422.626 511.85 423.143 511.396 423.712L510.793 421.569ZM507.396 429.768L509.333 428.682C509.293 429.039 509.272 429.401 509.272 429.768C509.272 430.135 509.293 430.497 509.333 430.854L507.396 429.768ZM510.652 429.768C510.652 425.169 514.393 421.428 518.992 421.428C523.591 421.428 527.332 425.169 527.332 429.768C527.332 434.367 523.591 438.108 518.992 438.108C514.393 438.108 510.652 434.367 510.652 429.768ZM518.992 441.364L517.906 439.427C518.263 439.467 518.625 439.488 518.992 439.488C519.359 439.488 519.721 439.467 520.078 439.427L518.992 441.364ZM527.192 437.968L525.049 437.364C525.617 436.91 526.134 436.393 526.588 435.825L527.192 437.968ZM528.651 430.854C528.691 430.498 528.712 430.135 528.712 429.768C528.712 429.401 528.691 429.039 528.651 428.682L530.588 429.768L528.651 430.854Z" fill="#B68058"/>
<path d="M514.945 428.278C514.676 428.009 514.239 428.009 513.97 428.278L512.984 429.264C512.855 429.393 512.782 429.568 512.782 429.751C512.782 429.934 512.855 430.11 512.984 430.239L513.927 431.182C514.062 431.317 514.239 431.384 514.415 431.384C514.591 431.384 514.768 431.317 514.903 431.182C515.172 430.913 515.172 430.476 514.903 430.207L514.447 429.752L514.945 429.254C515.214 428.985 515.214 428.548 514.945 428.278Z" fill="#B68058"/>
<path d="M518.383 425.566L518.839 425.11L519.336 425.608C519.471 425.743 519.648 425.81 519.824 425.81C520.001 425.81 520.177 425.743 520.312 425.608C520.581 425.339 520.581 424.902 520.312 424.632L519.326 423.647C519.057 423.378 518.62 423.378 518.351 423.647L517.408 424.59C517.139 424.86 517.139 425.296 517.408 425.566C517.677 425.835 518.114 425.835 518.383 425.566Z" fill="#B68058"/>
<path d="M522.983 430.975C523.117 431.11 523.294 431.177 523.47 431.177C523.647 431.177 523.824 431.11 523.958 430.975L524.943 429.99C525.213 429.72 525.213 429.284 524.943 429.014L524 428.071C523.731 427.802 523.294 427.802 523.025 428.071C522.756 428.34 522.756 428.777 523.025 429.047L523.48 429.502L522.983 429.999C522.713 430.269 522.713 430.706 522.983 430.975Z" fill="#B68058"/>
<path d="M519.576 435.606L520.519 434.663C520.788 434.394 520.788 433.957 520.519 433.688C520.249 433.418 519.813 433.418 519.543 433.688L519.088 434.143L518.591 433.645C518.321 433.376 517.884 433.376 517.615 433.645C517.346 433.915 517.346 434.352 517.615 434.621L518.6 435.606C518.735 435.741 518.912 435.808 519.088 435.808C519.265 435.808 519.441 435.741 519.576 435.606Z" fill="#B68058"/>
<path d="M509.312 441.421L502.455 448.277L500.49 446.312L501.81 444.991C502.08 444.722 502.08 444.285 501.81 444.016C501.541 443.747 501.104 443.747 500.835 444.016L499.32 445.531C498.895 445.467 498.446 445.597 498.119 445.923L491.146 452.897C491.145 452.897 491.145 452.897 491.145 452.898C491.145 452.898 491.145 452.898 491.145 452.898L488.987 455.056C488.856 455.032 488.722 455.02 488.587 455.02C487.998 455.02 487.444 455.249 487.028 455.665C486.384 456.309 486.223 457.256 486.543 458.051L485.783 458.812C484.739 459.855 484.739 461.553 485.783 462.597L486.171 462.985C486.692 463.507 487.378 463.767 488.063 463.767C488.748 463.767 489.434 463.506 489.955 462.985L490.716 462.224C490.981 462.331 491.262 462.384 491.543 462.384C492.108 462.384 492.672 462.169 493.102 461.739C493.634 461.208 493.835 460.471 493.71 459.782L495.869 457.623C495.869 457.622 495.87 457.622 495.87 457.622C495.87 457.622 495.87 457.622 495.87 457.622L502.844 450.648C503.109 450.383 503.255 450.031 503.255 449.657C503.255 449.586 503.248 449.516 503.237 449.447L510.287 442.397C510.557 442.127 510.557 441.69 510.287 441.421C510.018 441.152 509.581 441.152 509.312 441.421ZM497.753 453.787L494.98 451.014L496.375 449.618L499.149 452.392L497.753 453.787ZM495.382 456.159L492.608 453.385L494.004 451.989L496.778 454.763L495.382 456.159ZM490.237 455.756L491.633 454.361L494.406 457.134L493.011 458.53L490.237 455.756ZM487.146 462.009L486.758 461.621C486.252 461.115 486.252 460.293 486.758 459.787L487.395 459.15L489.617 461.372L488.98 462.009C488.474 462.515 487.652 462.515 487.146 462.009ZM492.127 460.764C491.805 461.086 491.281 461.086 490.96 460.764L488.002 457.807C487.682 457.485 487.682 456.962 488.003 456.641C488.159 456.485 488.366 456.399 488.587 456.399C488.807 456.399 489.014 456.485 489.17 456.641L490.648 458.119L492.127 459.597C492.282 459.753 492.368 459.96 492.368 460.18C492.368 460.401 492.282 460.608 492.127 460.764ZM501.868 449.672L500.125 451.416L497.351 448.642L499.095 446.899C499.103 446.89 499.117 446.89 499.126 446.899L501.868 449.641C501.871 449.644 501.875 449.648 501.875 449.657C501.875 449.666 501.871 449.67 501.868 449.672Z" fill="#B68058"/>
<path d="M61.3102 231.952C60.8778 231.952 60.5273 232.302 60.5273 232.735V233.517H58.127C57.7696 230.371 55.0907 228.004 51.9241 228.037C49.962 228.016 48.2933 229.464 48.0378 231.409C47.8908 232.459 48.176 233.524 48.8283 234.36C49.4805 235.196 50.4439 235.731 51.4982 235.844C51.8845 235.883 52.2745 235.834 52.6397 235.703C52.4664 238.962 51.7794 242.175 50.6042 245.22C49.4076 248.222 48.79 251.424 48.7839 254.656C48.7839 259.069 52.3751 262.92 57.6674 264.926C57.0386 265.143 56.6157 265.734 56.6129 266.399V268.892C55.6778 269.222 55.0512 270.105 55.0471 271.096V273.445C55.0471 274.31 55.7481 275.011 56.6129 275.011H75.4023C76.267 275.011 76.9681 274.31 76.9681 273.445V271.096C76.9639 270.105 76.3373 269.222 75.4023 268.892V266.399C75.3995 265.734 74.9766 265.143 74.3477 264.926C79.6401 262.92 83.2312 259.069 83.2312 254.656C83.2239 251.423 82.605 248.222 81.4071 245.22C80.2331 242.174 79.5475 238.962 79.3755 235.703C79.7407 235.834 80.1306 235.882 80.5169 235.844C81.571 235.731 82.5343 235.196 83.1866 234.36C83.8388 233.524 84.1241 232.46 83.9773 231.41C83.7222 229.464 82.0533 228.016 80.091 228.037C76.9203 228.004 74.2392 230.376 73.8866 233.528C73.8694 233.526 73.8545 233.517 73.8365 233.517H71.4878V232.735C71.4878 232.302 71.1373 231.952 70.7049 231.952C70.2725 231.952 69.922 232.302 69.922 232.735V233.517H66.7905V232.735C66.7905 232.302 66.4399 231.952 66.0076 231.952C65.5752 231.952 65.2247 232.302 65.2247 232.735V233.517H62.0931V232.735C62.0931 232.302 61.7426 231.952 61.3102 231.952ZM55.1794 254.87C54.5961 252.084 55.5176 248.853 56.4273 246.043C57.6522 242.522 58.2431 238.811 58.1724 235.083H60.5273V259.447C58.0839 258.774 55.7204 257.457 55.1794 254.87ZM58.1786 268.748V266.399H61.3102V268.748H58.1786ZM56.6129 271.096C56.6129 270.664 56.9634 270.313 57.3957 270.313H69.922V273.445H56.6129V271.096ZM71.4878 273.445V270.313H74.6194C75.0518 270.313 75.4023 270.664 75.4023 271.096V273.445H71.4878ZM73.8365 266.399V268.748H62.876V266.399H73.8365ZM80.091 229.603C80.9911 229.6 81.814 230.111 82.2096 230.919C82.6052 231.728 82.5039 232.691 81.9488 233.4C81.5571 233.898 80.9816 234.218 80.3517 234.287C80.0778 234.315 79.8036 234.236 79.5868 234.066C79.4396 233.954 79.3439 233.787 79.3214 233.603C79.2972 233.382 79.3682 233.161 79.5167 232.995C79.6652 232.829 79.8771 232.735 80.0996 232.735C80.532 232.735 80.8825 232.384 80.8825 231.952C80.8825 231.519 80.532 231.169 80.0996 231.169C78.8278 231.162 77.787 232.179 77.7643 233.451C77.7643 233.474 77.7509 233.494 77.7509 233.517C77.6952 237.69 78.4341 241.835 79.9282 245.731C81.0633 248.57 81.6527 251.598 81.6654 254.656C81.6654 260.267 74.6413 264.833 66.0076 264.833C57.3738 264.833 50.3497 260.267 50.3497 254.656C50.3624 251.598 50.9518 248.57 52.087 245.731C53.581 241.835 54.3199 237.69 54.2642 233.517C54.2642 233.494 54.2524 233.474 54.2509 233.451C54.2282 232.179 53.1873 231.162 51.9155 231.169C51.4831 231.169 51.1326 231.519 51.1326 231.952C51.1326 232.384 51.4831 232.735 51.9155 232.735C52.1381 232.735 52.3503 232.829 52.4988 232.995C52.6473 233.161 52.7182 233.382 52.6937 233.604C52.671 233.787 52.5754 233.954 52.4283 234.066C52.2124 234.238 51.9375 234.317 51.6634 234.287C51.0299 234.219 50.4512 233.896 50.0601 233.393C49.6691 232.89 49.4992 232.25 49.5895 231.619C49.7452 230.453 50.7478 229.587 51.9241 229.603C53.1729 229.591 54.3739 230.082 55.2562 230.966C56.1384 231.85 56.6274 233.052 56.6129 234.3C56.6129 240.384 55.7986 242.899 54.9375 245.561C53.9659 248.562 52.9849 252.029 53.6465 255.191C54.8756 261.067 62.6998 261.702 66.0076 261.702C69.3153 261.702 77.1395 261.067 78.3687 255.192C79.0302 252.029 78.0492 248.562 77.0777 245.562C76.2165 242.899 75.4023 240.384 75.4023 234.3C75.3877 233.052 75.8767 231.85 76.7589 230.966C77.6412 230.082 78.8423 229.591 80.091 229.603ZM73.8365 235.083H73.8427C73.7722 238.811 74.3631 242.522 75.5878 246.044C76.4975 248.854 77.419 252.085 76.8357 254.871C76.2948 257.454 73.9312 258.774 71.4878 259.448V235.083H73.8365ZM69.922 235.083V259.799C68.8868 259.978 67.8404 260.085 66.7905 260.12V235.083H69.922ZM65.2247 235.083V260.12C64.1747 260.085 63.1284 259.978 62.0931 259.799V235.083H65.2247Z" fill="#B68058"/>
<path d="M608.723 259.167C607.873 258.317 606.49 258.317 605.64 259.167L601.994 262.816C601.584 263.226 601.358 263.773 601.358 264.355C601.358 264.938 601.584 265.484 601.994 265.895C602.844 266.745 604.227 266.745 605.076 265.895L608.723 262.249C609.147 261.824 609.36 261.266 609.36 260.708C609.36 260.15 609.147 259.592 608.723 259.167ZM604.103 264.922C603.953 265.072 603.751 265.155 603.535 265.155C603.32 265.155 603.118 265.072 602.967 264.922C602.817 264.771 602.734 264.57 602.734 264.355C602.734 264.14 602.817 263.939 602.967 263.789C602.967 263.789 602.967 263.788 602.968 263.788L606.613 260.14C606.927 259.827 607.436 259.827 607.75 260.14C608.063 260.453 608.063 260.963 607.75 261.276L604.103 264.922Z" fill="#B68058"/>
<path d="M610.396 263.923L606.75 267.572C606.34 267.982 606.114 268.529 606.114 269.111C606.114 269.694 606.34 270.241 606.75 270.651C607.6 271.501 608.983 271.501 609.832 270.651L613.478 267.005C613.889 266.595 614.115 266.047 614.115 265.464C614.115 264.881 613.889 264.334 613.478 263.923C612.629 263.073 611.246 263.073 610.396 263.923ZM612.505 264.896C612.656 265.047 612.739 265.248 612.739 265.464C612.739 265.68 612.656 265.882 612.505 266.032L608.859 269.678C608.546 269.991 608.036 269.991 607.723 269.678C607.567 269.522 607.489 269.316 607.489 269.111C607.489 268.906 607.567 268.701 607.723 268.545C607.723 268.545 607.723 268.545 607.723 268.545L611.369 264.896C611.683 264.583 612.192 264.583 612.505 264.896Z" fill="#B68058"/>
<path d="M616.226 265.323C616.226 265.703 616.534 266.009 616.914 266.009C617.294 266.009 617.602 265.7 617.602 265.32C617.602 264.94 617.294 264.632 616.914 264.632C616.534 264.632 616.226 264.94 616.226 265.32L616.226 265.323Z" fill="#B68058"/>
<path d="M615.11 262.316C615.11 262.696 615.418 263.003 615.798 263.003C616.178 263.003 616.486 262.694 616.486 262.314C616.486 261.934 616.178 261.625 615.798 261.625C615.418 261.625 615.11 261.934 615.11 262.314L615.11 262.316Z" fill="#B68058"/>
<path d="M576.749 234.479C576.547 234.639 576.448 234.873 576.453 235.177L576.453 237.338C576.453 237.802 576.6 238.167 576.919 238.491L577.113 238.684L576.202 239.596C575.933 239.864 575.933 240.3 576.202 240.569C576.47 240.837 576.906 240.837 577.175 240.569L578.086 239.657L579.529 241.1L578.617 242.011C578.349 242.28 578.349 242.716 578.617 242.985C578.886 243.253 579.322 243.253 579.591 242.985L580.503 242.073L581.945 243.514L581.033 244.428C580.765 244.697 580.765 245.132 581.034 245.401C581.303 245.669 581.739 245.669 582.007 245.4L582.918 244.487L583.572 245.14L594.392 255.961C592.987 256.491 590.896 256.782 587.723 255.614C587.022 255.357 586.297 255.09 585.817 255.559C585.347 256.017 585.579 256.697 585.802 257.355C587.068 261.071 588.529 262.692 590.334 263.981C590.643 264.202 591.073 264.131 591.294 263.822C591.514 263.512 591.443 263.083 591.134 262.862C589.5 261.694 588.256 260.291 587.105 256.912C587.097 256.889 587.09 256.867 587.082 256.846C587.133 256.864 587.188 256.883 587.248 256.905C590.412 258.07 593.031 258.107 595.443 257.011L599.076 260.644C599.305 260.876 599.612 261.004 599.939 261.005C600.268 261.006 600.576 260.879 600.808 260.647L603.474 257.984C603.713 257.745 603.832 257.431 603.832 257.118C603.832 256.804 603.713 256.491 603.474 256.252L600.686 253.463C601.438 253.171 602.351 253.105 603.493 253.257C604.642 253.409 605.81 253.336 606.574 251.79C606.807 251.321 606.845 250.685 606.885 250.013C606.906 249.649 606.945 249.007 607.044 248.749C607.192 248.801 607.548 248.986 608.231 249.626C609.374 250.697 609.762 251.873 610.2 254.104C610.717 256.74 612.313 257.625 613.96 258.188C614.844 258.49 616.14 258.96 617.298 259.48C619.57 260.497 621.1 262.313 621.496 264.462C621.563 264.827 621.596 265.192 621.596 265.556C621.596 267.332 620.806 269.083 619.309 270.58L613.093 276.796C611.187 278.702 609.175 279.533 607.114 279.265C604.518 278.927 602.486 276.899 601.536 275.264C600.979 274.306 600.779 273.31 600.567 272.255C600.31 270.974 600.044 269.65 599.107 268.412C597.89 266.811 596.015 265.753 594.36 264.82C594.229 264.745 594.098 264.672 593.97 264.599C593.64 264.412 593.22 264.528 593.032 264.858C592.845 265.188 592.961 265.608 593.291 265.796C593.42 265.869 593.551 265.943 593.684 266.018C595.223 266.886 596.967 267.869 598.01 269.243C598.757 270.23 598.981 271.345 599.218 272.526C599.442 273.644 599.674 274.8 600.346 275.956C601.507 277.952 603.848 280.228 606.937 280.629C608.66 280.853 611.296 280.539 614.066 277.769L620.282 271.554C622.045 269.79 622.974 267.705 622.974 265.568C622.974 265.118 622.933 264.665 622.849 264.213C622.37 261.612 620.552 259.429 617.862 258.225C616.656 257.683 615.317 257.197 614.406 256.885C612.873 256.362 611.914 255.695 611.55 253.839C611.064 251.358 610.583 249.944 609.172 248.622C608.341 247.842 607.374 247.091 606.509 247.436C605.639 247.782 605.574 248.874 605.511 249.931C605.484 250.389 605.45 250.96 605.341 251.18C604.993 251.884 604.666 252.024 603.674 251.893C602.051 251.677 600.728 251.853 599.651 252.428L588.169 240.946L588.169 238.361L588.169 238.347C588.169 237.931 588.158 237.178 587.194 236.923L584.224 236.135C583.857 236.038 583.48 236.256 583.383 236.624C583.285 236.991 583.504 237.368 583.871 237.465L586.792 238.24C586.792 238.28 586.792 238.323 586.792 238.361L586.792 240.946L584.058 243.681L581.003 240.627C580.998 240.622 580.994 240.617 580.99 240.612C580.985 240.607 580.98 240.603 580.975 240.599L578.596 238.221C578.589 238.213 578.582 238.204 578.574 238.196C578.566 238.188 578.557 238.181 578.549 238.173L577.896 237.521C577.844 237.469 577.829 237.453 577.829 237.338L577.829 235.865L580.842 236.664C581.209 236.761 581.586 236.543 581.683 236.175C581.78 235.808 581.562 235.431 581.194 235.334L577.555 234.369C577.393 234.326 577.055 234.237 576.749 234.479ZM602.394 257.118L599.944 259.566L598.271 257.893L600.72 255.444L602.394 257.118ZM599.747 254.471L597.298 256.92L595.622 255.244L598.071 252.795L599.747 254.471ZM597.098 251.822L594.649 254.271L592.974 252.597L595.423 250.147L597.098 251.822ZM594.45 249.173L592.001 251.624L590.326 249.948L592.775 247.499L594.45 249.173ZM591.802 246.526L589.353 248.975L587.679 247.301L590.128 244.852L591.802 246.526ZM587.48 242.204L589.155 243.879L586.706 246.328L585.031 244.654L587.48 242.204Z" fill="#B68058"/>
<path d="M582.728 240.402C582.728 240.782 583.036 241.087 583.416 241.087C583.796 241.087 584.104 240.777 584.104 240.396C584.104 240.016 583.796 239.708 583.416 239.708C583.036 239.708 582.728 240.016 582.728 240.396L582.728 240.402Z" fill="#B68058"/>
<path d="M580.77 238.873L580.77 238.878C580.77 239.258 581.078 239.563 581.458 239.563C581.838 239.563 582.146 239.253 582.146 238.873C582.146 238.493 581.838 238.184 581.458 238.184C581.078 238.184 580.77 238.493 580.77 238.873Z" fill="#B68058"/>
<path d="M565.203 66.6642C560.765 62.228 554.864 59.7849 548.589 59.7849C542.313 59.7849 536.413 62.228 531.975 66.6642C527.537 71.1005 525.093 76.9984 525.093 83.2719C525.093 89.5453 527.537 95.4433 531.975 99.8795C536.413 104.316 542.313 106.759 548.589 106.759C554.864 106.759 560.765 104.316 565.203 99.8795C569.641 95.4433 572.085 89.5453 572.085 83.2719C572.085 76.9984 569.641 71.1005 565.203 66.6642ZM526.928 83.2719C526.928 74.3281 532.383 66.6332 540.14 63.3356C538.042 65.4725 536.746 68.3996 536.746 71.6232C536.746 78.151 542.059 83.4617 548.589 83.4617C554.508 83.4617 559.324 88.2754 559.324 94.1924C559.324 100.109 554.508 104.923 548.589 104.923C536.645 104.923 526.928 95.2104 526.928 83.2719ZM557.576 102.97C559.792 100.703 561.16 97.6047 561.16 94.1925C561.16 87.2633 555.52 81.6261 548.589 81.6261C543.071 81.6261 538.582 77.1388 538.582 71.6233C538.582 66.1078 543.071 61.6206 548.589 61.6206C560.532 61.6206 570.249 71.3334 570.249 83.2719C570.249 92.0075 565.046 99.5508 557.576 102.97Z" fill="#B68058"/>
<path d="M548.589 66.2791C545.439 66.2791 542.877 68.8405 542.877 71.989C542.877 75.1376 545.439 77.699 548.589 77.699C551.738 77.699 554.301 75.1376 554.301 71.989C554.301 68.8405 551.738 66.2791 548.589 66.2791ZM548.589 75.8634C546.451 75.8634 544.713 74.1254 544.713 71.989C544.713 69.8527 546.451 68.1147 548.589 68.1147C550.726 68.1147 552.465 69.8527 552.465 71.989C552.465 74.1254 550.726 75.8634 548.589 75.8634Z" fill="#B68058"/>
<path d="M554.301 94.5547C554.301 91.4062 551.738 88.8447 548.589 88.8447C545.439 88.8447 542.877 91.4062 542.877 94.5547C542.877 97.7033 545.439 100.265 548.589 100.265C551.738 100.265 554.301 97.7032 554.301 94.5547ZM544.713 94.5547C544.713 92.4184 546.451 90.6804 548.589 90.6804C550.726 90.6804 552.465 92.4183 552.465 94.5547C552.465 96.691 550.726 98.4291 548.589 98.4291C546.451 98.4291 544.713 96.691 544.713 94.5547Z" fill="#B68058"/>
<path d="M179.146 451L174.282 432.851C174.17 432.433 173.741 432.186 173.324 432.297L168.786 433.513C168.369 433.625 168.121 434.054 168.233 434.472L168.431 435.213C152.211 439.222 135.154 432.707 125.779 418.832C125.316 418.147 124.474 417.829 123.682 418.041C122.654 418.317 122.041 419.377 122.317 420.407L122.83 422.322C128.684 444.169 151.028 457.268 172.888 451.846L173.096 452.621C173.208 453.04 173.637 453.287 174.055 453.175L178.592 451.959C179.009 451.847 179.258 451.419 179.146 451ZM124.343 421.917L123.829 420.001C123.777 419.806 123.893 419.606 124.087 419.554C124.236 419.514 124.391 419.575 124.481 419.708C134.23 434.138 151.973 440.916 168.839 436.733L172.486 450.345C151.46 455.546 129.973 442.93 124.343 421.917ZM174.406 451.46L174.203 450.704L170.15 435.579L169.948 434.823L172.973 434.013L177.43 450.649L174.406 451.46Z" fill="#B68058"/>
<path d="M164.036 448.366C159.84 448.495 155.676 447.903 151.66 446.607L151.18 448.097C155.367 449.449 159.708 450.066 164.084 449.931L164.036 448.366Z" fill="#B68058"/>
<path d="M167.916 448.04C167.142 448.146 166.363 448.229 165.6 448.285L165.716 449.847C166.511 449.788 167.323 449.702 168.13 449.591L167.916 448.04Z" fill="#B68058"/>
<path d="M354.453 31.7521C349.7 21.0753 352.394 10.5546 352.421 10.4492C352.465 10.2824 352.459 10.1063 352.403 9.94311C352.347 9.77997 352.243 9.63715 352.106 9.53273C344.88 4.05137 334.994 0.218438 334.576 0.0578213C334.375 -0.0192738 334.152 -0.0192738 333.951 0.0578213C333.534 0.218438 323.648 4.05137 316.422 9.53273C316.284 9.63722 316.181 9.78021 316.125 9.94355C316.069 10.1069 316.062 10.2832 316.107 10.4502C316.134 10.5546 318.839 21.0514 314.075 31.7521C314.013 31.8921 313.989 32.046 314.005 32.1984C314.021 32.3507 314.077 32.4961 314.168 32.6198C314.501 33.0758 322.467 43.8247 334.037 46.9441C334.186 46.9838 334.342 46.9838 334.49 46.9441C346.061 43.8247 354.026 33.0758 354.36 32.6198C354.45 32.4961 354.506 32.3508 354.523 32.1984C354.539 32.0461 354.515 31.8921 354.453 31.7521ZM334.264 45.2016C324.611 42.497 317.402 33.9192 315.873 31.9823C320.03 22.2359 318.447 12.9718 317.926 10.582C324.206 5.95241 332.556 2.49094 334.264 1.80621C335.972 2.49094 344.317 5.94993 350.601 10.5825C350.08 12.9723 348.498 22.2349 352.654 31.9833C351.127 33.9192 343.929 42.493 334.264 45.2016Z" fill="#B68058"/>
<path d="M348.596 11.8844C348.621 11.7218 348.6 11.5554 348.535 11.4044C348.469 11.2534 348.362 11.1242 348.226 11.0316C343.104 7.54175 336.99 4.82967 334.601 3.82618C334.495 3.78138 334.38 3.7583 334.264 3.7583C334.149 3.7583 334.034 3.78138 333.928 3.82618C331.541 4.82768 325.432 7.5338 320.303 11.0326C320.167 11.1251 320.06 11.2544 319.995 11.4052C319.929 11.5561 319.908 11.7224 319.933 11.8849C320.938 18.3832 320.292 25.03 318.053 31.2126C317.998 31.3586 317.984 31.5165 318.011 31.6699C318.038 31.8233 318.106 31.9666 318.208 32.0848C320.419 34.6572 326.382 40.8999 333.999 43.3071C334.084 43.3339 334.172 43.3474 334.261 43.3474C334.35 43.3475 334.439 43.3337 334.524 43.3066C342.099 40.9093 348.089 34.6577 350.312 32.0808C350.414 31.9626 350.482 31.8193 350.51 31.6657C350.537 31.5121 350.523 31.3539 350.469 31.2076C348.233 25.0257 347.589 18.3806 348.596 11.8844ZM348.661 31.3275C346.341 33.9461 340.945 39.3529 334.263 41.5632C327.545 39.3454 322.171 33.9481 319.864 31.3335C322 25.1833 322.64 18.6128 321.732 12.1658C325.711 9.61102 329.904 7.40522 334.263 5.57308C338.622 7.40715 342.814 9.61304 346.795 12.1663C345.887 18.611 346.527 25.1791 348.661 31.3275Z" fill="#B68058"/>
<path d="M311.256 484.515C311.161 484.609 311.09 484.724 311.046 484.851C311.003 484.977 310.99 485.112 311.008 485.244L312.193 494.234C312.22 494.444 312.324 494.638 312.485 494.777L335.482 514.758L332.458 517.783C332.301 517.949 332.213 518.169 332.213 518.398C332.213 518.627 332.301 518.847 332.458 519.013L334.858 521.413C335.021 521.576 335.242 521.667 335.473 521.667C335.704 521.667 335.925 521.576 336.088 521.413L338.731 518.769L339.721 519.759C339.802 519.84 339.898 519.904 340.003 519.947C340.109 519.991 340.222 520.014 340.336 520.014C340.45 520.014 340.564 519.991 340.669 519.947C340.775 519.904 340.871 519.84 340.951 519.759L341.415 519.295L349.826 527.027L349.536 527.317C349.455 527.398 349.391 527.494 349.347 527.6C349.303 527.705 349.281 527.819 349.281 527.933C349.281 528.047 349.303 528.16 349.347 528.266C349.391 528.372 349.455 528.467 349.536 528.548L351.444 530.456C351.942 530.954 352.617 531.233 353.321 531.233C354.025 531.233 354.7 530.954 355.198 530.456L357.198 528.456C357.695 527.958 357.974 527.283 357.974 526.58C357.974 525.876 357.695 525.201 357.198 524.703L355.29 522.795C355.209 522.714 355.113 522.65 355.008 522.606C354.902 522.562 354.789 522.54 354.675 522.54C354.561 522.54 354.447 522.562 354.342 522.606C354.236 522.65 354.14 522.714 354.059 522.795L353.769 523.085L346.034 514.676L346.498 514.212C346.579 514.132 346.643 514.036 346.687 513.93C346.73 513.824 346.753 513.711 346.753 513.597C346.753 513.483 346.73 513.369 346.687 513.264C346.643 513.158 346.579 513.062 346.498 512.982L345.508 511.992L348.151 509.349C348.232 509.268 348.296 509.172 348.34 509.067C348.384 508.961 348.406 508.848 348.406 508.734C348.406 508.619 348.384 508.506 348.34 508.401C348.296 508.295 348.232 508.199 348.151 508.118L345.752 505.72C345.671 505.639 345.575 505.575 345.47 505.531C345.364 505.487 345.251 505.465 345.137 505.465C345.022 505.465 344.909 505.487 344.804 505.531C344.698 505.575 344.602 505.639 344.522 505.72L341.499 508.742L321.52 485.742C321.38 485.581 321.187 485.477 320.976 485.45L311.987 484.266C311.854 484.248 311.719 484.262 311.592 484.305C311.466 484.349 311.351 484.42 311.256 484.515ZM355.966 525.933C356.138 526.105 356.234 526.337 356.234 526.58C356.234 526.822 356.138 527.054 355.966 527.226L353.966 529.225C353.882 529.31 353.781 529.378 353.67 529.424C353.559 529.47 353.44 529.493 353.32 529.493C353.2 529.493 353.081 529.47 352.97 529.424C352.859 529.378 352.758 529.31 352.674 529.225L351.381 527.933L354.673 524.64L355.966 525.933ZM352.535 524.317L351.058 525.797L342.649 518.062L344.803 515.907L352.535 524.317ZM344.652 513.597L340.338 517.911L339.964 517.536L344.277 513.223L344.652 513.597ZM346.305 508.734L335.475 519.565L334.306 518.396L345.137 507.565L346.305 508.734ZM320.42 487.134L340.264 509.977L339.106 511.135L320.852 492.879C320.688 492.716 320.467 492.624 320.236 492.624C320.005 492.624 319.783 492.716 319.62 492.879C319.457 493.042 319.365 493.264 319.365 493.495C319.365 493.726 319.457 493.947 319.62 494.111L337.874 512.365L336.717 513.523L313.875 493.68L312.881 486.142L320.42 487.134Z" fill="#B68058"/>
<path d="M128.829 74.6048L135.154 64.5196C135.159 64.5112 135.163 64.5027 135.168 64.4942C135.171 64.4881 135.175 64.4822 135.178 64.4761C135.191 64.4512 135.203 64.4258 135.213 64.3999C135.215 64.3966 135.216 64.3932 135.217 64.39C135.226 64.3648 135.234 64.3393 135.24 64.3136C135.241 64.3107 135.242 64.3079 135.243 64.3049C135.243 64.3032 135.243 64.3014 135.244 64.2997C135.25 64.2716 135.255 64.2433 135.257 64.2148C135.258 64.2098 135.258 64.2048 135.258 64.1999C135.26 64.1746 135.261 64.1492 135.26 64.1238C135.26 64.1195 135.26 64.1151 135.26 64.1108C135.258 64.0832 135.255 64.0559 135.251 64.0287C135.25 64.0225 135.248 64.0165 135.247 64.0104C135.242 63.9849 135.236 63.9597 135.228 63.9349C135.227 63.9327 135.227 63.9306 135.226 63.9284C135.218 63.9017 135.207 63.8757 135.195 63.8501C135.193 63.8449 135.19 63.8397 135.188 63.8345C135.163 63.784 135.132 63.7363 135.094 63.6923C135.09 63.6873 135.086 63.6823 135.081 63.6774C135.062 63.6561 135.042 63.6355 135.02 63.6163L129.904 59.1504C129.899 59.1457 129.893 59.1419 129.887 59.1373C129.873 59.1257 129.859 59.1145 129.844 59.1041C129.835 59.0981 129.826 59.0926 129.817 59.087C129.801 59.0766 129.785 59.0666 129.768 59.0576C129.76 59.0535 129.752 59.05 129.744 59.0462C129.725 59.0373 129.706 59.0287 129.687 59.0215C129.681 59.0191 129.674 59.0172 129.668 59.0151C129.646 59.0078 129.625 59.001 129.603 58.9959C129.599 58.9949 129.595 58.9945 129.591 58.9936C129.483 58.9699 129.37 58.9705 129.259 59.0001L117.434 62.1687C117.403 62.1768 117.374 62.1868 117.346 62.1987C117.157 62.2744 117.009 62.4286 116.943 62.6234L114.745 69.049C114.736 69.0766 114.729 69.1046 114.723 69.1326C114.721 69.139 114.72 69.1453 114.719 69.1518C114.709 69.2086 114.706 69.2656 114.709 69.3217C114.71 69.3274 114.71 69.3331 114.711 69.3388C114.713 69.3669 114.717 69.3948 114.723 69.4223C114.723 69.4245 114.724 69.4266 114.724 69.4289C114.73 69.4543 114.737 69.4793 114.746 69.5038C114.748 69.5096 114.75 69.5154 114.752 69.5213C114.761 69.5471 114.772 69.5725 114.785 69.5971C114.787 69.6009 114.789 69.6046 114.791 69.6085C114.803 69.6308 114.816 69.6525 114.831 69.6735C114.833 69.6776 114.836 69.6818 114.839 69.6858C114.856 69.709 114.874 69.7312 114.893 69.7525C114.895 69.7538 114.895 69.7554 114.897 69.7566C114.899 69.7588 114.901 69.7606 114.903 69.7628C114.922 69.782 114.941 69.8001 114.962 69.8173C114.964 69.8195 114.967 69.822 114.97 69.8242C114.991 69.8416 115.014 69.8576 115.038 69.8726C115.044 69.8762 115.05 69.8797 115.056 69.8831C115.065 69.888 115.073 69.8933 115.081 69.8979L125.601 75.4698C119.033 78.0882 115.305 85.2862 117.179 92.2804C119.199 99.8207 126.977 104.311 134.518 102.291C142.058 100.271 146.549 92.4925 144.528 84.9522C142.654 77.958 135.826 73.5886 128.829 74.6048ZM128.235 72.9045L128.621 66.4646L133.011 65.2883L128.235 72.9045ZM126.793 73.4567L123.156 67.9291L127.19 66.8483L126.793 73.4567ZM129.854 60.9734L133.101 63.8082L128.904 64.933L129.854 60.9734ZM128.481 60.6654L127.563 64.4956L124.852 61.638L128.481 60.6654ZM126.62 65.545L122.992 66.5171L123.91 62.6893L126.62 65.545ZM122.57 62.2494L121.651 66.0797L118.94 63.2221L122.57 62.2494ZM117.9 64.1697L120.708 67.1291L116.503 68.2559L117.9 64.1697ZM117.321 69.4926L121.725 68.3125L125.273 73.7044L117.321 69.4926ZM134.154 100.933C127.362 102.752 120.357 98.7076 118.537 91.9164C116.717 85.1252 120.762 78.1197 127.553 76.3C134.345 74.4803 141.35 78.5249 143.17 85.3161C144.989 92.1073 140.945 99.1128 134.154 100.933Z" fill="#B68058"/>
<path d="M133.386 70.8385C133.001 70.7835 132.645 71.0509 132.59 71.4352C132.535 71.8196 132.803 72.1758 133.187 72.2307C139.761 73.17 145.119 77.9205 146.837 84.3334C149.199 93.147 143.95 102.239 135.136 104.6C126.322 106.962 117.231 101.713 114.869 92.8991C113.148 86.4742 115.421 79.6741 120.662 75.5753C120.967 75.336 121.021 74.8942 120.782 74.5882C120.543 74.2823 120.101 74.2284 119.795 74.4676C114.11 78.9147 111.643 86.2924 113.511 93.2631C116.073 102.826 125.937 108.521 135.5 105.959C145.063 103.396 150.758 93.532 148.196 83.9693C146.331 77.0116 140.518 71.8575 133.386 70.8385Z" fill="#B68058"/>
</svg>
