<svg width="37" height="30" viewBox="0 0 37 30" fill="none" xmlns="http://www.w3.org/2000/svg">
<path d="M0.33617 0.0193238L0.154785 0.333496L8.40113 5.09447L8.58251 4.78029L0.33617 0.0193238Z" fill="url(#paint0_linear)"/>
<path d="M0.181388 29.4961L0 29.1819L11.1634 22.7369V5.98659L36.5372 0L36.6207 0.353161L11.5259 6.27374V22.9464L0.181388 29.4961Z" fill="url(#paint1_linear)"/>
<path d="M35.1758 22.2158C35.2869 22.3243 35.4189 22.4089 35.5639 22.4645C35.7088 22.52 35.8636 22.5454 36.0187 22.539C36.2251 22.5474 36.4278 22.4824 36.5908 22.3555C36.6615 22.3001 36.7184 22.2291 36.757 22.1481C36.7957 22.067 36.815 21.9781 36.8135 21.8883C36.8179 21.4689 36.3944 21.2986 36.0755 21.1983C35.8527 21.1152 35.6737 21.0104 35.6737 20.8533C35.6737 20.6741 35.8221 20.5779 36.0492 20.5779C36.253 20.5745 36.4514 20.6443 36.6082 20.7746L36.7785 20.4689C36.5794 20.2996 36.3234 20.2121 36.0622 20.2243C35.608 20.2243 35.2674 20.4601 35.2674 20.862C35.2674 21.2899 35.6823 21.4384 36.0011 21.5563C36.2239 21.6394 36.4031 21.7443 36.4031 21.897C36.4031 22.0761 36.2545 22.1852 36.0274 22.1852C35.9073 22.1875 35.7879 22.1659 35.6761 22.1217C35.5644 22.0775 35.4626 22.0115 35.3766 21.9276L35.1758 22.2158Z" fill="black"/>
<path d="M34.1491 22.4871V21.5698C34.144 21.3482 34.2032 21.1298 34.3194 20.941C34.3723 20.855 34.4471 20.7846 34.5362 20.737C34.6252 20.6894 34.7253 20.6664 34.8262 20.6702C34.8671 20.6695 34.9081 20.6724 34.9485 20.6789V20.2597C34.9004 20.2553 34.8654 20.251 34.8349 20.251C34.6707 20.2612 34.5141 20.3234 34.3877 20.4286C34.2612 20.5338 34.1716 20.6765 34.1317 20.8361H34.123L34.136 20.6745V20.2771H33.7256V22.4871H34.1491Z" fill="black"/>
<path d="M31.5661 21.1482C31.5809 20.9878 31.6556 20.8389 31.7754 20.7312C31.8953 20.6236 32.0513 20.5651 32.2124 20.5674C32.2867 20.5672 32.3603 20.5825 32.4284 20.6122C32.4966 20.6419 32.5579 20.6854 32.6083 20.74C32.6588 20.7946 32.6975 20.859 32.7218 20.9293C32.7461 20.9996 32.7556 21.0741 32.7496 21.1482H31.5661ZM31.1119 21.3973C31.1077 21.5505 31.1345 21.703 31.1908 21.8456C31.2471 21.9881 31.3317 22.1179 31.4394 22.2269C31.5512 22.3359 31.6839 22.4211 31.8295 22.4774C31.9752 22.5337 32.1307 22.56 32.2867 22.5545C32.6002 22.5539 32.9034 22.4426 33.1427 22.2401L32.9636 21.93C32.7868 22.0947 32.5544 22.1866 32.3128 22.1875C32.1189 22.1916 31.9305 22.1231 31.7844 21.9954C31.7113 21.9255 31.6531 21.8414 31.6134 21.7484C31.5736 21.6554 31.5531 21.5552 31.553 21.454H33.1603C33.1706 21.3948 33.1764 21.3349 33.1777 21.2748C33.1879 21.0058 33.0975 20.7427 32.9243 20.5367C32.837 20.4376 32.7284 20.3594 32.6067 20.308C32.485 20.2566 32.3532 20.2333 32.2213 20.2398C32.0739 20.2351 31.9272 20.261 31.7904 20.3159C31.6536 20.3708 31.5296 20.4535 31.4264 20.5587C31.3204 20.6702 31.2379 20.802 31.1839 20.946C31.1299 21.0901 31.1054 21.2435 31.1119 21.3973Z" fill="black"/>
<path d="M29.819 21.6788C29.8021 21.8331 29.8344 21.9888 29.9112 22.1237C29.9881 22.2585 30.1055 22.3657 30.2469 22.4299C30.3796 22.4853 30.5225 22.5121 30.6663 22.5086C30.716 22.507 30.7655 22.5026 30.8148 22.4955V22.1199C30.7013 22.142 30.5838 22.1283 30.4785 22.0806C30.3983 22.0382 30.3329 21.9726 30.2908 21.8922C30.2487 21.8119 30.2319 21.7208 30.2427 21.6307V20.6438H30.7754V20.2988H30.2427V19.6699H29.8277V20.2988H29.5308V20.6438H29.819L29.819 21.6788Z" fill="black"/>
<path d="M28.3801 21.6788C28.3632 21.8331 28.3954 21.9888 28.4723 22.1237C28.5491 22.2585 28.6666 22.3657 28.8079 22.4299C28.9406 22.4853 29.0835 22.5121 29.2273 22.5086C29.277 22.507 29.3265 22.5026 29.3757 22.4955V22.1199C29.2622 22.142 29.1447 22.1282 29.0393 22.0806C28.9592 22.0382 28.8938 21.9725 28.8517 21.8922C28.8096 21.8119 28.7928 21.7208 28.8035 21.6307V20.6438H29.3365V20.2988H28.8035V19.6699H28.3888V20.2988H28.0918V20.6438H28.3801L28.3801 21.6788Z" fill="black"/>
<path d="M26.0877 21.1326C26.1025 20.9722 26.1773 20.8233 26.2971 20.7156C26.4169 20.6079 26.5729 20.5494 26.734 20.5518C26.8084 20.5516 26.8819 20.5669 26.9501 20.5966C27.0182 20.6263 27.0794 20.6699 27.1299 20.7244C27.1804 20.779 27.219 20.8435 27.2433 20.9137C27.2676 20.984 27.277 21.0585 27.2711 21.1326H26.0877ZM25.6333 21.3817C25.6291 21.5349 25.656 21.6875 25.7123 21.8301C25.7686 21.9727 25.8532 22.1024 25.961 22.2115C26.0728 22.3204 26.2055 22.4056 26.3511 22.4619C26.4967 22.5182 26.6522 22.5444 26.8082 22.539C27.1217 22.5384 27.425 22.427 27.6644 22.2245L27.4851 21.9144C27.3084 22.0792 27.076 22.1712 26.8344 22.1721C26.6405 22.176 26.4521 22.1075 26.3059 21.98C26.2329 21.91 26.1748 21.8259 26.135 21.7328C26.0952 21.6397 26.0746 21.5396 26.0745 21.4384H27.6818C27.6921 21.3792 27.6979 21.3194 27.6992 21.2594C27.7094 20.9904 27.6191 20.7273 27.446 20.5213C27.3586 20.4221 27.25 20.3439 27.1283 20.2925C27.0065 20.241 26.8748 20.2177 26.7427 20.2242C26.5954 20.2195 26.4487 20.2454 26.3119 20.3003C26.1751 20.3552 26.0512 20.4379 25.9479 20.5431C25.8419 20.6546 25.7595 20.7863 25.7054 20.9304C25.6514 21.0745 25.6269 21.2279 25.6333 21.3817Z" fill="black"/>
<path d="M23.667 22.2158C23.7781 22.3243 23.9101 22.4089 24.0551 22.4645C24.2 22.52 24.3548 22.5454 24.5099 22.539C24.7163 22.5475 24.919 22.4824 25.082 22.3555C25.1527 22.3002 25.2096 22.2292 25.2483 22.1481C25.2869 22.067 25.3063 21.9781 25.3047 21.8883C25.3091 21.4689 24.8855 21.2986 24.5667 21.1983C24.3439 21.1152 24.1649 21.0103 24.1649 20.8533C24.1649 20.6741 24.3135 20.5779 24.5404 20.5779C24.7443 20.5745 24.9427 20.6443 25.0996 20.7745L25.2699 20.4689C25.0708 20.2996 24.8148 20.2122 24.5536 20.2242C24.0994 20.2242 23.7588 20.46 23.7588 20.862C23.7588 21.2899 24.1736 21.4384 24.4924 21.5563C24.7152 21.6394 24.8942 21.7442 24.8942 21.897C24.8942 22.076 24.7457 22.1852 24.5186 22.1852C24.3985 22.1875 24.2791 22.1659 24.1674 22.1217C24.0558 22.0775 23.954 22.0115 23.868 21.9276L23.667 22.2158Z" fill="black"/>
<path d="M21.3705 21.395C21.3561 21.1413 21.4354 20.8911 21.5934 20.692C21.6597 20.6089 21.7442 20.542 21.8403 20.4966C21.9364 20.4512 22.0417 20.4283 22.148 20.4298C22.2576 20.4257 22.3665 20.4496 22.4643 20.4993C22.5621 20.5489 22.6456 20.6228 22.707 20.7137C22.8447 20.9121 22.9151 21.1493 22.908 21.3907C22.908 22.0369 22.5716 22.3602 22.1306 22.3602C22.0248 22.3621 21.92 22.3395 21.8245 22.294C21.729 22.2486 21.6454 22.1816 21.5802 22.0983C21.4323 21.8945 21.3583 21.6465 21.3705 21.395V21.395ZM22.1567 20.2508C22.0227 20.2471 21.8897 20.2734 21.7673 20.3278C21.6449 20.3823 21.5362 20.4634 21.4493 20.5654C21.2607 20.7996 21.1644 21.0947 21.1785 21.395C21.163 21.6928 21.2527 21.9865 21.4319 22.2248C21.5276 22.3373 21.6497 22.4243 21.7873 22.478C21.9248 22.5318 22.0736 22.5507 22.2202 22.5329C22.3668 22.5152 22.5067 22.4614 22.6275 22.3764C22.7483 22.2914 22.8461 22.1778 22.9123 22.0458H22.921L22.9036 22.2118V22.4869H23.087V19.4297H22.9036V20.5654C22.9023 20.6255 22.9081 20.6856 22.921 20.7444H22.9123C22.847 20.5983 22.741 20.4741 22.607 20.3866C22.473 20.2991 22.3167 20.252 22.1567 20.2509V20.2508Z" fill="black"/>
<path d="M19.0593 22.4865V21.399C19.0552 21.272 19.0768 21.1454 19.1225 21.0269C19.1683 20.9084 19.2374 20.8003 19.3258 20.709C19.4084 20.6191 19.5091 20.5478 19.6213 20.4996C19.7335 20.4514 19.8545 20.4275 19.9766 20.4294C20.0829 20.4139 20.1913 20.4377 20.2814 20.4964C20.3714 20.5551 20.4369 20.6447 20.4656 20.7483C20.5033 20.8847 20.5195 21.0261 20.5137 21.1675V22.4865H20.697V21.102C20.697 20.543 20.5137 20.2504 19.9766 20.2504C19.7562 20.2438 19.5407 20.3166 19.3695 20.4556C19.2283 20.5614 19.1182 20.7032 19.0506 20.8662H19.0419L19.0593 20.6872V20.3028H18.876V22.4865H19.0593Z" fill="black"/>
<path d="M16.595 21.1942C16.6141 20.982 16.7123 20.7847 16.87 20.6415C17.0278 20.4983 17.2336 20.4196 17.4466 20.4211C17.8351 20.4211 18.1279 20.6876 18.1497 21.1942H16.595ZM16.3896 21.3993C16.3829 21.5497 16.4073 21.6999 16.4614 21.8403C16.5154 21.9808 16.5979 22.1086 16.7038 22.2157C16.8096 22.3227 16.9364 22.4068 17.0763 22.4624C17.2161 22.5181 17.366 22.5443 17.5164 22.5393C17.8032 22.5345 18.0788 22.4276 18.2938 22.2378L18.1934 22.0851C18.1052 22.1746 17.9997 22.2452 17.8833 22.2925C17.7669 22.3398 17.642 22.3628 17.5164 22.3601C17.3928 22.3637 17.2697 22.342 17.1547 22.2962C17.0398 22.2504 16.9355 22.1815 16.8482 22.0939C16.7568 21.9966 16.686 21.8818 16.6402 21.7565C16.5944 21.6311 16.5745 21.4977 16.5817 21.3644H18.333C18.3374 21.312 18.3419 21.2727 18.3419 21.2466C18.3511 20.99 18.2674 20.7387 18.1061 20.539C18.0274 20.4427 17.927 20.3664 17.8131 20.3163C17.6993 20.2662 17.5752 20.2437 17.451 20.2508C17.3113 20.2487 17.1726 20.2752 17.0434 20.3284C16.9143 20.3817 16.7973 20.4608 16.6997 20.5607C16.5939 20.6722 16.5119 20.8041 16.4586 20.9482C16.4053 21.0924 16.3819 21.2458 16.3896 21.3993V21.3993Z" fill="black"/>
<path d="M15.3387 22.4864V21.5431C15.3217 21.2178 15.4312 20.8985 15.6443 20.6521C15.6963 20.5951 15.7597 20.5497 15.8305 20.5189C15.9012 20.488 15.9776 20.4724 16.0548 20.4731C16.0885 20.4723 16.1222 20.4752 16.1553 20.4818V20.2984C16.1137 20.2895 16.0712 20.285 16.0287 20.2852C15.8623 20.2994 15.7048 20.3664 15.5791 20.4764C15.4535 20.5864 15.3662 20.7336 15.33 20.8966H15.3213L15.3387 20.7176V20.3028H15.1553V22.4864H15.3387Z" fill="black"/>
<path d="M13.8385 21.6962C13.8385 22.421 14.3058 22.504 14.5329 22.504C14.5695 22.5044 14.606 22.5015 14.6421 22.4953V22.325C14.6089 22.3311 14.5753 22.334 14.5416 22.3337C14.4252 22.3362 14.3113 22.2992 14.2185 22.2289C14.1469 22.1585 14.092 22.0728 14.058 21.9783C14.0239 21.8838 14.0116 21.7828 14.0219 21.6829V20.482H14.5942V20.316H14.0219V19.6958H13.8385V20.316H13.5503V20.482H13.8385V21.6962Z" fill="black"/>
<path d="M15.6941 14.9423C15.6941 13.8981 16.2691 13.4522 16.8791 13.4522C17.583 13.4522 18.0641 14.0388 18.0641 14.9423C18.0641 15.8692 17.5126 16.3854 16.8791 16.3854C16.0813 16.3854 15.6941 15.6697 15.6941 14.9423ZM13.7231 17.9223H15.5885V17.6877C15.5885 17.5 15.5767 17.3475 15.5767 17.3475H15.6001C15.8141 17.5808 16.0757 17.7654 16.3672 17.8889C16.6587 18.0124 16.9733 18.0718 17.2898 18.0632C18.8972 18.0632 20.1056 16.8194 20.1056 14.9071C20.1056 13.0299 19.0262 11.7393 17.3835 11.7393C17.0826 11.7342 16.7836 11.7885 16.5037 11.8993C16.2239 12.01 15.9686 12.1749 15.7527 12.3845H15.7293C15.7293 12.3845 15.7527 12.1734 15.7527 11.8685V9.53369H13.7231V17.9223Z" fill="black"/>
<path d="M19.9297 15.7991C19.9297 17.5003 20.8801 18.0635 22.0768 18.0635C22.4568 18.0773 22.8334 17.9874 23.1661 17.8034C23.4989 17.6195 23.7753 17.3484 23.9657 17.0192H23.9893C23.974 17.1438 23.9662 17.2692 23.9657 17.3947V17.9225H25.9132V11.8804H23.8835V14.5554C23.8835 15.4588 23.4729 16.2215 22.6048 16.2215C22.1825 16.2215 21.9594 15.9868 21.9594 15.4236V11.8804H19.9297V15.7991Z" fill="black"/>
<path d="M26.4937 17.9226H28.5234V15.5762C28.5234 14.4734 29.063 13.7577 30.1894 13.7577C30.3271 13.7545 30.4648 13.7663 30.6 13.7929V11.7983C30.5225 11.7842 30.444 11.7764 30.3653 11.7749C29.928 11.7932 29.5074 11.9478 29.1623 12.2171C28.8173 12.4863 28.5651 12.8568 28.4412 13.2766H28.4178C28.4329 13.1521 28.4407 13.0268 28.4412 12.9014V11.8805H26.4937L26.4937 17.9226Z" fill="black"/>
<path d="M32.2018 14.9193C32.2018 14.0042 32.8353 13.4292 33.5745 13.4292C34.3136 13.4292 34.947 14.0042 34.947 14.9193C34.9579 15.1063 34.9305 15.2935 34.8664 15.4695C34.8024 15.6455 34.703 15.8065 34.5745 15.9427C34.446 16.0789 34.291 16.1875 34.119 16.2617C33.947 16.3358 33.7617 16.3741 33.5744 16.3741C33.3871 16.3741 33.2018 16.3358 33.0298 16.2617C32.8579 16.1875 32.7029 16.0789 32.5743 15.9427C32.4458 15.8065 32.3465 15.6455 32.2824 15.4695C32.2183 15.2935 32.1909 15.1063 32.2018 14.9193H32.2018ZM30.1484 14.9193C30.1484 16.8083 31.6738 18.0637 33.5745 18.0637C35.4751 18.0637 37.0003 16.8083 37.0003 14.9193C37.0003 13.0186 35.4751 11.7397 33.5627 11.7397C31.6737 11.7397 30.1484 13.0186 30.1484 14.9193H30.1484Z" fill="black"/>
<path d="M0.959961 15.6934C0.959961 17.7232 2.8255 17.9812 3.78757 17.9812C4.02216 17.9812 4.18647 17.9579 4.33884 17.9461V16.1863C4.2492 16.1949 4.15917 16.1989 4.06913 16.1981C3.68205 16.1981 2.9897 16.1041 2.9897 15.4237V13.5698H4.25686V11.9859H2.98969V10.2495H1.01877C1.01877 12.5427 0.959961 12.9971 0.959961 15.6934Z" fill="black"/>
<path d="M4.75635 17.1715C5.44359 17.7555 6.31833 18.0721 7.22013 18.0632C8.76898 18.0632 9.70751 17.2067 9.70751 16.0803C9.70751 14.1211 6.88002 14.2735 6.88002 13.6401C6.88002 13.4758 7.00902 13.3466 7.44326 13.3466C7.98932 13.3556 8.52029 13.5272 8.96837 13.8394L9.66054 12.4315C9.0415 11.9603 8.27943 11.7159 7.50181 11.7393C6.1057 11.7393 4.99107 12.4081 4.99107 13.6517C4.99107 15.6345 7.81855 15.4937 7.81855 16.1391C7.81855 16.3268 7.67778 16.4558 7.26709 16.4558C6.66628 16.4443 6.08714 16.2293 5.6245 15.8458L4.75635 17.1715Z" fill="black"/>
<path d="M22.449 9.53369H20.9194V11.0632H22.449V9.53369Z" fill="black"/>
<path d="M24.9528 9.53369H23.4233V11.0632H24.9528V9.53369Z" fill="black"/>
<defs>
<linearGradient id="paint0_linear" x1="-11.1112" y1="14.5523" x2="24.101" y2="-12.7339" gradientUnits="userSpaceOnUse">
<stop stop-color="#613A1F"/>
<stop offset="0.03171" stop-color="#6C4427"/>
<stop offset="0.12655" stop-color="#875D39"/>
<stop offset="0.21067" stop-color="#976C45"/>
<stop offset="0.27479" stop-color="#9D7149"/>
<stop offset="0.39515" stop-color="#B68058"/>
<stop offset="0.48624" stop-color="#C48961"/>
<stop offset="0.59755" stop-color="#AF7C54"/>
<stop offset="0.67853" stop-color="#9D7149"/>
<stop offset="0.80279" stop-color="#885E3A"/>
<stop offset="0.99103" stop-color="#613A1F"/>
</linearGradient>
<linearGradient id="paint1_linear" x1="-384.33" y1="2879.7" x2="3739.97" y2="-1088.21" gradientUnits="userSpaceOnUse">
<stop stop-color="#613A1F"/>
<stop offset="0.03171" stop-color="#6C4427"/>
<stop offset="0.12655" stop-color="#875D39"/>
<stop offset="0.21067" stop-color="#976C45"/>
<stop offset="0.27479" stop-color="#9D7149"/>
<stop offset="0.39515" stop-color="#B68058"/>
<stop offset="0.48624" stop-color="#C48961"/>
<stop offset="0.59755" stop-color="#AF7C54"/>
<stop offset="0.67853" stop-color="#9D7149"/>
<stop offset="0.80279" stop-color="#885E3A"/>
<stop offset="0.99103" stop-color="#613A1F"/>
</linearGradient>
</defs>
</svg>
