<svg width="131" height="105" viewBox="0 0 131 105" fill="none" xmlns="http://www.w3.org/2000/svg">
<path d="M1.192 0.0688618L0.549805 1.1812L29.7462 18.0376L30.3884 16.9252L1.192 0.0688618Z" fill="url(#paint0_linear)"/>
<path d="M0.64221 104.432L0 103.319L39.5244 80.5008V21.1957L129.361 0L129.657 1.25038L40.8079 22.2124V81.2423L0.64221 104.432Z" fill="url(#paint1_linear)"/>
<path d="M124.541 78.6564C124.934 79.0403 125.401 79.3399 125.915 79.5367C126.428 79.7334 126.976 79.8233 127.525 79.8007C128.256 79.8305 128.973 79.6002 129.55 79.151C129.801 78.9549 130.002 78.7035 130.139 78.4165C130.276 78.1294 130.344 77.8146 130.339 77.4967C130.354 76.0118 128.855 75.4087 127.726 75.0537C126.937 74.7594 126.303 74.3883 126.303 73.8322C126.303 73.1978 126.829 72.8573 127.633 72.8573C128.355 72.8452 129.057 73.0922 129.612 73.5535L130.215 72.4715C129.51 71.8719 128.604 71.5622 127.679 71.6051C126.071 71.6051 124.865 72.44 124.865 73.863C124.865 75.378 126.334 75.904 127.463 76.3213C128.251 76.6156 128.886 76.9867 128.886 77.5276C128.886 78.1615 128.36 78.5479 127.556 78.5479C127.13 78.5561 126.708 78.4797 126.312 78.3232C125.917 78.1667 125.556 77.9331 125.251 77.636L124.541 78.6564Z" fill="white"/>
<path d="M120.905 79.6152V76.3675C120.887 75.5828 121.096 74.8096 121.508 74.1411C121.695 73.8367 121.96 73.5874 122.275 73.419C122.59 73.2505 122.945 73.1689 123.302 73.1824C123.447 73.1801 123.592 73.1904 123.735 73.2132V71.729C123.565 71.7136 123.441 71.6982 123.333 71.6982C122.752 71.7344 122.197 71.9547 121.749 72.3271C121.302 72.6996 120.984 73.2049 120.843 73.7698H120.812L120.858 73.1978V71.7906H119.405V79.6152H120.905Z" fill="white"/>
<path d="M111.76 74.8752C111.813 74.3073 112.077 73.7801 112.502 73.3989C112.926 73.0176 113.478 72.8105 114.048 72.8188C114.312 72.8182 114.572 72.8722 114.813 72.9774C115.055 73.0826 115.272 73.2366 115.45 73.4299C115.629 73.6231 115.766 73.8514 115.852 74.1001C115.938 74.3489 115.972 74.6128 115.951 74.8752H111.76ZM110.152 75.757C110.137 76.2995 110.232 76.8394 110.432 77.3442C110.631 77.849 110.93 78.3082 111.312 78.6943C111.708 79.0802 112.177 79.382 112.693 79.5813C113.209 79.7807 113.759 79.8735 114.312 79.8542C115.421 79.8521 116.495 79.4579 117.342 78.7412L116.708 77.643C116.082 78.2261 115.26 78.5517 114.404 78.5549C113.718 78.5693 113.05 78.3267 112.533 77.8748C112.275 77.6271 112.068 77.3296 111.928 77.0002C111.787 76.6707 111.714 76.3162 111.714 75.9579H117.405C117.441 75.7483 117.462 75.5361 117.466 75.3233C117.502 74.3711 117.182 73.4395 116.569 72.7103C116.26 72.3593 115.875 72.0825 115.444 71.9005C115.014 71.7185 114.547 71.636 114.08 71.659C113.558 71.6424 113.039 71.7341 112.554 71.9284C112.07 72.1228 111.631 72.4154 111.266 72.788C110.89 73.1829 110.598 73.6492 110.407 74.1593C110.216 74.6694 110.129 75.2127 110.152 75.757Z" fill="white"/>
<path d="M105.574 76.7543C105.514 77.3006 105.628 77.8518 105.9 78.3293C106.172 78.8069 106.588 79.1863 107.089 79.4136C107.559 79.6098 108.064 79.7047 108.573 79.6922C108.749 79.6864 108.925 79.671 109.099 79.646V78.3161C108.698 78.3943 108.282 78.3456 107.909 78.1768C107.625 78.0268 107.393 77.7943 107.244 77.51C107.095 77.2257 107.036 76.9029 107.074 76.5841V73.0897H108.96V71.8684H107.074V69.6418H105.604V71.8684H104.553V73.0897H105.574L105.574 76.7543Z" fill="white"/>
<path d="M100.48 76.7543C100.42 77.3006 100.535 77.8518 100.807 78.3294C101.079 78.8069 101.494 79.1864 101.995 79.4136C102.465 79.6097 102.971 79.7047 103.48 79.6922C103.656 79.6864 103.831 79.671 104.005 79.646V78.3161C103.603 78.3943 103.187 78.3456 102.814 78.1768C102.531 78.0268 102.299 77.7943 102.15 77.51C102.001 77.2257 101.941 76.9029 101.979 76.5841V73.0897H103.866V71.8684H101.979V69.6418H100.511V71.8684H99.4595V73.0897H100.48L100.48 76.7543Z" fill="white"/>
<path d="M92.3643 74.8213C92.4166 74.2533 92.6813 73.726 93.1055 73.3447C93.5298 72.9635 94.0823 72.7564 94.6526 72.7648C94.9158 72.7643 95.1762 72.8184 95.4174 72.9236C95.6587 73.0288 95.8755 73.1829 96.0542 73.3762C96.2329 73.5694 96.3695 73.7976 96.4556 74.0463C96.5416 74.2951 96.5751 74.5589 96.5541 74.8213H92.3643ZM90.7556 75.703C90.7407 76.2457 90.8357 76.7857 91.0351 77.2906C91.2344 77.7955 91.5339 78.2549 91.9155 78.641C92.3113 79.0268 92.7812 79.3284 93.2967 79.5277C93.8122 79.727 94.3627 79.8199 94.9151 79.8007C96.0252 79.7984 97.0988 79.4041 97.9464 78.6872L97.3119 77.5891C96.6862 78.1726 95.8633 78.4985 95.0078 78.5017C94.3213 78.5156 93.6542 78.2731 93.1369 77.8215C92.8783 77.5735 92.6725 77.2758 92.5317 76.9463C92.3909 76.6168 92.318 76.2623 92.3174 75.904H98.0081C98.0446 75.6945 98.0652 75.4826 98.0697 75.27C98.1058 74.3179 97.7863 73.3864 97.1733 72.657C96.864 72.3058 96.4795 72.0289 96.0484 71.8468C95.6174 71.6646 95.1508 71.582 94.6834 71.6051C94.1618 71.5885 93.6424 71.6802 93.1581 71.8745C92.6737 72.0688 92.2349 72.3615 91.8694 72.734C91.4941 73.1289 91.2021 73.5952 91.0107 74.1053C90.8194 74.6154 90.7326 75.1587 90.7556 75.703Z" fill="white"/>
<path d="M83.7935 78.6564C84.1867 79.0403 84.6543 79.3399 85.1675 79.5367C85.6807 79.7334 86.2287 79.8233 86.7779 79.8007C87.5086 79.8305 88.2262 79.6003 88.8033 79.1509C89.0537 78.955 89.2553 78.7036 89.3921 78.4165C89.5289 78.1295 89.5973 77.8146 89.5919 77.4967C89.6073 76.0118 88.1078 75.4087 86.9788 75.0537C86.1902 74.7594 85.5563 74.3883 85.5563 73.8321C85.5563 73.1978 86.0823 72.8573 86.8857 72.8573C87.6077 72.8452 88.3101 73.0922 88.8656 73.5535L89.4687 72.4715C88.7635 71.872 87.8572 71.5623 86.9326 71.6051C85.3245 71.6051 84.1183 72.44 84.1183 73.863C84.1183 75.378 85.5871 75.904 86.716 76.3213C87.5047 76.6156 88.1386 76.9867 88.1386 77.5275C88.1386 78.1615 87.6127 78.5479 86.8087 78.5479C86.3834 78.5561 85.9608 78.4798 85.5653 78.3232C85.1699 78.1667 84.8095 77.9331 84.5051 77.636L83.7935 78.6564Z" fill="white"/>
<path d="M75.6625 75.7493C75.6114 74.8508 75.8923 73.9649 76.4518 73.2601C76.6865 72.9658 76.9855 72.7292 77.3258 72.5683C77.6661 72.4074 78.0387 72.3265 78.4151 72.3319C78.8033 72.3172 79.1888 72.4018 79.5351 72.5777C79.8815 72.7536 80.1772 73.015 80.3943 73.3371C80.8818 74.0393 81.1312 74.8794 81.1059 75.7338C81.1059 78.0218 79.9152 79.1664 78.3535 79.1664C77.9791 79.1733 77.6082 79.0931 77.27 78.9322C76.9318 78.7713 76.6357 78.534 76.4049 78.2391C75.8814 77.5178 75.6195 76.6395 75.6625 75.7492V75.7493ZM78.4459 71.6981C77.9718 71.6849 77.5007 71.7781 77.0673 71.9708C76.6339 72.1635 76.2492 72.4509 75.9414 72.8117C75.2739 73.641 74.9329 74.6859 74.9826 75.7492C74.928 76.8035 75.2456 77.8433 75.8798 78.6872C76.2188 79.0853 76.6511 79.3933 77.1381 79.5837C77.6251 79.774 78.1517 79.8408 78.6708 79.778C79.1899 79.7152 79.6854 79.5248 80.113 79.2239C80.5406 78.9229 80.887 78.5208 81.1213 78.0533H81.1522L81.0905 78.641V79.6152H81.7398V68.7909H81.0905V72.8117C81.0858 73.0247 81.1065 73.2376 81.1522 73.4457H81.1213C80.89 72.9284 80.5148 72.4887 80.0404 72.1788C79.566 71.869 79.0125 71.7022 78.4459 71.6982V71.6981Z" fill="white"/>
<path d="M67.4796 79.6152V75.7647C67.4653 75.315 67.5414 74.8671 67.7035 74.4475C67.8656 74.0278 68.1103 73.645 68.4232 73.3217C68.7158 73.0037 69.0723 72.7511 69.4694 72.5805C69.8665 72.4099 70.2951 72.3252 70.7272 72.3319C71.1038 72.2769 71.4876 72.3612 71.8064 72.5692C72.1252 72.7771 72.3571 73.0942 72.4586 73.461C72.5921 73.9439 72.6496 74.4446 72.6289 74.9452V79.6152H73.278V74.7132C73.278 72.734 72.6289 71.6982 70.7272 71.6982C69.9469 71.6748 69.1842 71.9326 68.578 72.4245C68.0781 72.7992 67.6882 73.3013 67.4488 73.8784H67.418L67.4796 73.2447V71.8838H66.8306V79.6152H67.4796Z" fill="white"/>
<path d="M58.7546 75.0383C58.8223 74.287 59.1699 73.5886 59.7284 73.0816C60.2869 72.5746 61.0156 72.296 61.7699 72.3011C63.1453 72.3011 64.182 73.2447 64.2591 75.0383H58.7546ZM58.0276 75.7646C58.0037 76.2971 58.0901 76.8287 58.2815 77.3261C58.4729 77.8235 58.7651 78.276 59.1398 78.655C59.5145 79.0341 59.9635 79.3315 60.4586 79.5287C60.9538 79.7259 61.4844 79.8185 62.0171 79.8007C63.0323 79.7839 64.0083 79.4055 64.7695 78.7334L64.4138 78.1926C64.1016 78.5096 63.7281 78.7594 63.3159 78.9269C62.9038 79.0943 62.4618 79.1758 62.0171 79.1664C61.5792 79.1792 61.1434 79.1022 60.7365 78.9401C60.3296 78.7779 59.9602 78.5341 59.6512 78.2237C59.3275 77.8793 59.077 77.473 58.9148 77.0291C58.7527 76.5852 58.6823 76.1131 58.7078 75.6412H64.9081C64.9238 75.4556 64.9396 75.3163 64.9396 75.2239C64.9723 74.3155 64.6758 73.4258 64.1048 72.7186C63.826 72.3776 63.4706 72.1074 63.0675 71.9301C62.6643 71.7527 62.225 71.6733 61.7853 71.6982C61.2906 71.691 60.7997 71.7845 60.3424 71.9732C59.8851 72.1619 59.471 72.4417 59.1253 72.7956C58.7509 73.1904 58.4605 73.6572 58.2718 74.1675C58.0831 74.6779 58 75.2212 58.0276 75.7647V75.7646Z" fill="white"/>
<path d="M54.3075 79.6152V76.2751C54.2475 75.1233 54.6352 73.993 55.3895 73.1205C55.5737 72.9188 55.7983 72.7581 56.0487 72.6489C56.2991 72.5397 56.5697 72.4845 56.8429 72.4868C56.9623 72.4841 57.0816 72.4944 57.1988 72.5176V71.8683C57.0514 71.8367 56.9011 71.8209 56.7504 71.8214C56.1613 71.872 55.6038 72.1092 55.1589 72.4986C54.7139 72.888 54.4049 73.4092 54.2767 73.9863H54.2459L54.3075 73.3524V71.8837H53.6582V79.6152H54.3075Z" fill="white"/>
<path d="M48.9965 76.8165C48.9965 79.3827 50.651 79.6768 51.4551 79.6768C51.5846 79.6782 51.7139 79.6679 51.8416 79.646V79.0431C51.7242 79.0646 51.6051 79.0749 51.4859 79.0739C51.0736 79.0826 50.6706 78.9517 50.342 78.7026C50.0884 78.4533 49.8941 78.1501 49.7736 77.8155C49.6531 77.4809 49.6094 77.1234 49.6458 76.7696V72.5176H51.6721V71.93H49.6458V69.7342H48.9965V71.93H47.9761V72.5176H48.9965V76.8165Z" fill="white"/>
<path d="M55.5645 52.9048C55.5645 49.2077 57.6004 47.629 59.7601 47.629C62.2524 47.629 63.9557 49.7059 63.9557 52.9048C63.9557 56.1865 62.0032 58.0141 59.7601 58.0141C56.9356 58.0141 55.5645 55.4801 55.5645 52.9048ZM48.5864 63.4555H55.1907V62.6252C55.1907 61.9605 55.149 61.4203 55.149 61.4203H55.2319C55.9896 62.2463 56.9157 62.9 57.9478 63.3373C58.9798 63.7745 60.0937 63.985 61.2141 63.9546C66.9052 63.9546 71.1837 59.5508 71.1837 52.7802C71.1837 46.134 67.3619 41.5646 61.546 41.5646C60.4806 41.5464 59.422 41.7389 58.4312 42.1309C57.4403 42.5229 56.5366 43.1068 55.772 43.849H55.6891C55.6891 43.849 55.772 43.1015 55.772 42.022V33.7555H48.5864V63.4555Z" fill="white"/>
<path d="M70.5615 55.9373C70.5615 61.9605 73.9265 63.9546 78.1633 63.9546C79.5087 64.0035 80.8421 63.6852 82.0203 63.0338C83.1985 62.3825 84.1772 61.4226 84.8513 60.2572H84.9346C84.8807 60.6983 84.8528 61.1422 84.8513 61.5866V63.4555H91.7465V42.063H84.5601V51.5342C84.5601 54.7325 83.1063 57.433 80.0327 57.433C78.5376 57.433 77.7478 56.602 77.7478 54.6078V42.063H70.5615V55.9373Z" fill="white"/>
<path d="M93.8023 63.4554H100.989V55.1479C100.989 51.2432 102.899 48.7092 106.887 48.7092C107.375 48.6981 107.862 48.7399 108.341 48.8338V41.7721C108.067 41.7222 107.789 41.6944 107.51 41.6892C105.962 41.7538 104.472 42.3012 103.251 43.2546C102.029 44.2081 101.136 45.5198 100.697 47.006H100.615C100.668 46.5651 100.696 46.1215 100.697 45.6775V42.063H93.8022L93.8023 63.4554Z" fill="white"/>
<path d="M114.011 52.8219C114.011 49.5819 116.254 47.5461 118.871 47.5461C121.488 47.5461 123.73 49.5819 123.73 52.8219C123.769 53.4838 123.672 54.1467 123.445 54.7698C123.218 55.3929 122.866 55.9631 122.411 56.4454C121.956 56.9277 121.407 57.3119 120.799 57.5745C120.19 57.8372 119.534 57.9726 118.87 57.9726C118.207 57.9726 117.551 57.8372 116.942 57.5745C116.334 57.3119 115.785 56.9277 115.33 56.4454C114.875 55.9631 114.523 55.3929 114.296 54.7698C114.069 54.1467 113.972 53.4838 114.011 52.8219H114.011ZM106.741 52.8219C106.741 59.5098 112.141 63.9546 118.871 63.9546C125.6 63.9546 131 59.5098 131 52.8219C131 46.0923 125.6 41.5646 118.829 41.5646C112.141 41.5646 106.741 46.0923 106.741 52.8219H106.741Z" fill="white"/>
<path d="M3.39795 55.5634C3.39795 62.7498 10.0029 63.6635 13.4092 63.6635C14.2397 63.6635 14.8215 63.5808 15.361 63.5391V57.3084C15.0436 57.339 14.7249 57.3529 14.406 57.3501C13.0356 57.3501 10.5843 57.0175 10.5843 54.6085V48.0445H15.0707V42.4368H10.5843V36.289H3.60616C3.60616 44.4083 3.39795 46.0171 3.39795 55.5634Z" fill="white"/>
<path d="M16.8394 60.7973C19.2725 62.8648 22.3696 63.9858 25.5624 63.9545C31.0462 63.9545 34.3691 60.9219 34.3691 56.9338C34.3691 49.9974 24.3583 50.5368 24.3583 48.2944C24.3583 47.7126 24.815 47.2552 26.3524 47.2552C28.2858 47.2871 30.1657 47.8946 31.7522 49.0001L34.2028 44.0152C32.0111 42.3469 29.3129 41.4818 26.5597 41.5645C21.6168 41.5645 17.6704 43.9325 17.6704 48.3354C17.6704 55.3554 27.6812 54.857 27.6812 57.142C27.6812 57.8065 27.1828 58.2632 25.7287 58.2632C23.6015 58.2228 21.5511 57.4613 19.9131 56.1035L16.8394 60.7973Z" fill="white"/>
<path d="M79.481 33.7548H74.0654V39.1699H79.481V33.7548Z" fill="white"/>
<path d="M88.3458 33.7548H82.9307V39.1699H88.3458V33.7548Z" fill="white"/>
<defs>
<linearGradient id="paint0_linear" x1="-39.3377" y1="51.5234" x2="85.3321" y2="-45.0841" gradientUnits="userSpaceOnUse">
<stop stop-color="#613A1F"/>
<stop offset="0.03171" stop-color="#6C4427"/>
<stop offset="0.12655" stop-color="#875D39"/>
<stop offset="0.21067" stop-color="#976C45"/>
<stop offset="0.27479" stop-color="#9D7149"/>
<stop offset="0.39515" stop-color="#B68058"/>
<stop offset="0.48624" stop-color="#C48961"/>
<stop offset="0.59755" stop-color="#AF7C54"/>
<stop offset="0.67853" stop-color="#9D7149"/>
<stop offset="0.80279" stop-color="#885E3A"/>
<stop offset="0.99103" stop-color="#613A1F"/>
</linearGradient>
<linearGradient id="paint1_linear" x1="-1360.73" y1="10195.7" x2="13241.5" y2="-3852.83" gradientUnits="userSpaceOnUse">
<stop stop-color="#613A1F"/>
<stop offset="0.03171" stop-color="#6C4427"/>
<stop offset="0.12655" stop-color="#875D39"/>
<stop offset="0.21067" stop-color="#976C45"/>
<stop offset="0.27479" stop-color="#9D7149"/>
<stop offset="0.39515" stop-color="#B68058"/>
<stop offset="0.48624" stop-color="#C48961"/>
<stop offset="0.59755" stop-color="#AF7C54"/>
<stop offset="0.67853" stop-color="#9D7149"/>
<stop offset="0.80279" stop-color="#885E3A"/>
<stop offset="0.99103" stop-color="#613A1F"/>
</linearGradient>
</defs>
</svg>
