<svg width="170" height="170" viewBox="0 0 170 170" fill="none" xmlns="http://www.w3.org/2000/svg">
<path d="M145.104 109.896C135.846 100.638 124.827 93.7846 112.804 89.6358C125.681 80.7669 134.141 65.9241 134.141 49.1406C134.141 22.0445 112.096 0 85 0C57.9039 0 35.8594 22.0445 35.8594 49.1406C35.8594 65.9241 44.3192 80.7669 57.1964 89.6358C45.1735 93.7846 34.1541 100.638 24.896 109.896C8.84166 125.95 0 147.296 0 170H13.2812C13.2812 130.454 45.4541 98.2812 85 98.2812C124.546 98.2812 156.719 130.454 156.719 170H170C170 147.296 161.158 125.95 145.104 109.896ZM85 85C65.2272 85 49.1406 68.9137 49.1406 49.1406C49.1406 29.3675 65.2272 13.2812 85 13.2812C104.773 13.2812 120.859 29.3675 120.859 49.1406C120.859 68.9137 104.773 85 85 85Z" fill="white"/>
</svg>
